<?xml version="1.0" encoding="UTF-8"?>
<svg width="256" height="256" viewBox="0 0 256 256" fill="none" xmlns="http://www.w3.org/2000/svg">
  <!-- High contrast brain outline -->
  <path d="M128 32C100 32 80 52 80 80C68 80 56 92 56 108C56 120 64 130.4 74.4 134.4C72.8 140 72 146.4 72 152C72 184 96 208 128 208C160 208 184 184 184 152C184 146.4 183.2 140 181.6 134.4C192 130.4 200 120 200 108C200 92 188 80 176 80C176 52 156 32 128 32Z" stroke="#000000" stroke-width="8" fill="#ffffff"/>
  
  <!-- High contrast neural network nodes -->
  <circle cx="104" cy="96" r="12" fill="#000000"/>
  <circle cx="152" cy="96" r="12" fill="#000000"/>
  <circle cx="128" cy="128" r="12" fill="#000000"/>
  <circle cx="88" cy="160" r="12" fill="#000000"/>
  <circle cx="168" cy="160" r="12" fill="#000000"/>
  <circle cx="112" cy="180" r="8" fill="#666666"/>
  <circle cx="144" cy="180" r="8" fill="#666666"/>
  
  <!-- High contrast neural connections -->
  <line x1="104" y1="96" x2="128" y2="128" stroke="#000000" stroke-width="4"/>
  <line x1="152" y1="96" x2="128" y2="128" stroke="#000000" stroke-width="4"/>
  <line x1="128" y1="128" x2="88" y2="160" stroke="#000000" stroke-width="4"/>
  <line x1="128" y1="128" x2="168" y2="160" stroke="#000000" stroke-width="4"/>
  <line x1="104" y1="96" x2="152" y2="96" stroke="#000000" stroke-width="3"/>
  <line x1="88" y1="160" x2="168" y2="160" stroke="#000000" stroke-width="3"/>
  <line x1="88" y1="160" x2="112" y2="180" stroke="#666666" stroke-width="3"/>
  <line x1="168" y1="160" x2="144" y2="180" stroke="#666666" stroke-width="3"/>
  <line x1="128" y1="128" x2="112" y2="180" stroke="#666666" stroke-width="2"/>
  <line x1="128" y1="128" x2="144" y2="180" stroke="#666666" stroke-width="2"/>
</svg>