<?xml version="1.0" encoding="UTF-8"?>
<svg version="1.1" xmlns="http://www.w3.org/2000/svg" width="811" height="484">
<path d="M0 0 C1.26939423 -0.00241196 2.53878845 -0.00482391 3.84664917 -0.00730896 C6.52542606 -0.00633079 9.20195745 0.00444605 11.88037109 0.03198242 C15.30830552 0.06613535 18.73474521 0.06001714 22.16275215 0.04131985 C25.44192173 0.02819977 28.72086276 0.04646347 32 0.0625 C33.8438176 0.0550602 33.8438176 0.0550602 35.72488403 0.04747009 C37.43718704 0.07122459 37.43718704 0.07122459 39.18408203 0.09545898 C40.18746613 0.10165756 41.19085022 0.10785614 42.22463989 0.11424255 C45.61473426 0.77449878 46.77948849 1.91836801 48.8671875 4.62890625 C54.17236236 19.04391693 53.02989982 46.72867967 47.6484375 60.9140625 C45.38385505 65.60032181 42.61336068 69.88514868 39.59912109 74.12158203 C36.55495142 78.52863342 34.07575968 83.25521233 31.4921875 87.94140625 C30.41228646 89.8410563 29.33022903 91.73948201 28.24609375 93.63671875 C24.55294067 100.14944589 20.98016151 106.72503011 17.4296875 113.31640625 C16.86266113 114.36675049 16.29563477 115.41709473 15.71142578 116.49926758 C12.99861994 121.55261979 10.35071271 126.62800964 7.80078125 131.765625 C5.11794726 137.1696759 2.28958089 142.47615881 -0.6328125 147.75390625 C-1.11274658 148.62499023 -1.59268066 149.49607422 -2.0871582 150.39355469 C-4.41923145 154.60781148 -6.78580845 158.78203669 -9.3203125 162.87890625 C-11.65258335 166.68937693 -13.6644612 170.62213941 -15.6328125 174.62890625 C-23.70265693 191.02916932 -32.62299964 207.00780244 -41.5703125 222.94140625 C-42.44876831 224.50713379 -42.44876831 224.50713379 -43.3449707 226.10449219 C-47.71575509 233.89177408 -47.71575509 233.89177408 -49.40527344 236.87792969 C-50.42678212 238.68616839 -51.43671652 240.50093349 -52.4453125 242.31640625 C-52.95707031 243.22777344 -53.46882812 244.13914062 -53.99609375 245.078125 C-55.26658526 247.92909049 -55.66849685 250.55416946 -56.1328125 253.62890625 C-55.14645813 253.62886534 -54.16010376 253.62882442 -53.14385986 253.62878227 C-51.73295085 253.62873046 -50.32204183 253.62868039 -48.91113281 253.62863159 C-48.14746147 253.62860492 -47.38379013 253.62857825 -46.59697723 253.62855077 C-42.26771544 253.62842658 -37.93845369 253.62842703 -33.60919189 253.62861443 C-31.78177897 253.62869137 -29.95436605 253.6287683 -28.12695312 253.62884521 C-27.20379177 253.62888695 -26.28063042 253.62892869 -25.32949448 253.6289717 C-20.21657776 253.6291175 -15.10366205 253.6285724 -9.99074554 253.62713468 C8.65461906 253.62214278 27.29968037 253.64546232 45.94494629 253.70918465 C54.85854407 253.73892294 63.77189635 253.7568821 72.68554688 253.74902344 C80.57839421 253.7420954 88.47087828 253.75607552 96.36363602 253.79534233 C100.50892105 253.81526096 104.65363419 253.8250101 108.7989502 253.80932999 C112.6674017 253.79500461 116.5347446 253.80870603 120.40305328 253.84385872 C121.81595129 253.85180323 123.22894989 253.84960601 124.64180756 253.83629799 C136.5928547 253.7332327 136.5928547 253.7332327 141.20808411 257.26193237 C144.15710758 260.40605049 144.73858629 262.93001118 144.7253418 267.2734375 C144.73772385 268.57498779 144.7501059 269.87653809 144.76286316 271.2175293 C144.74037634 272.62551019 144.71652411 274.03346984 144.69140625 275.44140625 C144.68849963 276.89819052 144.68811814 278.35498181 144.69013977 279.81176758 C144.6869297 282.85850546 144.66005026 285.90379479 144.61499023 288.95019531 C144.55831974 292.84428216 144.55013219 296.73656467 144.55839825 300.6309967 C144.56120348 303.63725351 144.54354965 306.64311178 144.51926613 309.64926147 C144.50909389 311.08447607 144.50395831 312.51973593 144.50406456 313.95498657 C144.50007336 315.96492082 144.46679231 317.97473152 144.43237305 319.984375 C144.41402657 321.69596802 144.41402657 321.69596802 144.39530945 323.44213867 C143.60848062 328.18998262 141.22120271 331.27489104 137.8671875 334.62890625 C135.52550894 334.88075525 135.52550894 334.88075525 132.52259159 334.88338184 C131.38138924 334.88921404 130.24018688 334.89504623 129.06440264 334.90105516 C127.79993459 334.89727583 126.53546654 334.89349651 125.23268127 334.88960266 C123.88428136 334.89262067 122.53588316 334.89650837 121.18748802 334.90119523 C117.46945467 334.91152935 113.75151716 334.90927974 110.03347576 334.90501463 C106.02863374 334.90255717 102.0238154 334.91154932 98.01898193 334.91905212 C90.16820286 334.93182855 82.31745794 334.93358916 74.46667022 334.93125186 C68.08802038 334.92947182 61.70938094 334.93121157 55.33073235 334.9354763 C54.42432637 334.93607149 53.51792039 334.93666668 52.58404757 334.93727991 C50.74292883 334.9384916 48.90181009 334.93970574 47.06069135 334.94092228 C29.77845991 334.95180916 12.49624796 334.9496299 -4.78598458 334.94353744 C-20.61067881 334.93836723 -36.4353115 334.94962442 -52.25999355 334.96863566 C-68.49270532 334.98798821 -84.72538795 334.99627461 -100.95811135 334.9925124 C-110.07799018 334.99059643 -119.19781663 334.99312634 -128.31768608 335.00722694 C-136.0814374 335.01910888 -143.84510408 335.02058164 -151.60885649 335.00843678 C-155.57274366 335.00252556 -159.53647579 335.00151008 -163.50035286 335.01343918 C-167.12550839 335.02422244 -170.75037803 335.02128582 -174.37551976 335.00717749 C-176.31578018 335.00324075 -178.25605294 335.01413909 -180.19628423 335.02547437 C-181.34009434 335.01826783 -182.48390444 335.01106128 -183.66237545 335.00363636 C-184.65350053 335.00369138 -185.64462561 335.00374639 -186.66578478 335.00380307 C-189.53498583 334.5677908 -190.42119946 333.9288667 -192.1328125 331.62890625 C-193.66651729 325.45863937 -191.49481655 320.51068161 -188.46679688 315.21679688 C-187.71366211 313.96672852 -187.71366211 313.96672852 -186.9453125 312.69140625 C-185.97071029 311.01675599 -184.99805009 309.340974 -184.02734375 307.6640625 C-183.54088379 306.83205322 -183.05442383 306.00004395 -182.55322266 305.14282227 C-181.16357449 302.68335043 -179.88983186 300.19535708 -178.64453125 297.66015625 C-176.02528952 292.33185538 -173.09526452 287.20962127 -170.1328125 282.06640625 C-164.71113168 272.57905099 -159.58321399 262.9664781 -154.62304688 253.23022461 C-151.77228807 247.6612471 -148.76086353 242.26518868 -145.50073242 236.92602539 C-143.57557651 233.69315158 -141.91412062 230.38277481 -140.2578125 227.00390625 C-139.95101562 226.38128906 -139.64421875 225.75867188 -139.328125 225.1171875 C-138.5925142 223.62297807 -137.8620579 222.1262326 -137.1328125 220.62890625 C-136.4728125 220.62890625 -135.8128125 220.62890625 -135.1328125 220.62890625 C-135.01977783 219.90106934 -134.90674316 219.17323242 -134.7902832 218.42333984 C-134.10488166 215.5101924 -133.12057008 213.49297514 -131.61328125 210.91796875 C-130.83053833 209.56239868 -130.83053833 209.56239868 -130.03198242 208.17944336 C-129.46713135 207.21401611 -128.90228027 206.24858887 -128.3203125 205.25390625 C-123.63213242 197.11476793 -119.12179618 188.91646742 -114.8203125 180.56640625 C-111.18538432 173.52315039 -107.45087164 166.59826932 -103.4609375 159.75 C-99.35196208 152.57828089 -95.54441156 145.22981576 -91.67456055 137.92700195 C-88.14446513 131.29027416 -84.48319351 124.76252645 -80.66674805 118.28662109 C-78.72391312 114.92044235 -77.00956324 111.50443035 -75.3203125 108.00390625 C-72.10965378 101.45023137 -68.64691007 95.07274773 -65.06640625 88.71484375 C-61.2160305 81.85010655 -57.56984675 74.88578173 -53.9753418 67.8840332 C-51.59538425 63.28194735 -49.07004971 58.8677071 -46.28295898 54.50146484 C-44.5044164 51.60581177 -43.03933407 48.56349296 -41.5703125 45.50390625 C-38.20419237 38.64794821 -34.65108008 31.90396717 -31.0078125 25.19140625 C-30.27195923 23.82508057 -30.27195923 23.82508057 -29.52124023 22.43115234 C-17.17996406 -0.18591445 -17.17996406 -0.18591445 0 0 Z " fill="#FDBD1F" transform="translate(663.1328125,77.37109375)"/>
<path d="M0 0 C0.86644638 -0.0071553 1.73289276 -0.01431061 2.62559509 -0.02168274 C3.5732222 -0.02437164 4.5208493 -0.02706055 5.49719238 -0.02983093 C6.99754784 -0.03968773 6.99754784 -0.03968773 8.5282135 -0.04974365 C11.84144156 -0.06947214 15.15462441 -0.0811356 18.46789551 -0.09111023 C19.59775375 -0.09518576 20.727612 -0.09926128 21.89170837 -0.10346031 C27.86680926 -0.12431476 33.84188719 -0.13862168 39.8170166 -0.147995 C46.00136934 -0.15908445 52.18536474 -0.19351549 58.36959076 -0.23316669 C63.11526176 -0.25924569 67.86084627 -0.26767885 72.60658264 -0.27127647 C74.88723679 -0.2761616 77.1678866 -0.28782984 79.44847107 -0.30631447 C82.63297361 -0.33053009 85.81653322 -0.3297735 89.00109863 -0.32279968 C89.94872574 -0.33560974 90.89635284 -0.3484198 91.87269592 -0.36161804 C98.23183271 -0.31065507 98.23183271 -0.31065507 100.86894226 2.02320862 C102.04504085 4.86117723 101.69608859 6.24627137 100.74914551 9.14717102 C99.7244873 11.477005 99.7244873 11.477005 98.44836426 13.89326477 C97.97189453 14.80173157 97.4954248 15.71019836 97.0045166 16.64619446 C96.22842041 18.10074036 96.22842041 18.10074036 95.43664551 19.58467102 C94.90120117 20.59948547 94.36575684 21.61429993 93.81408691 22.65986633 C89.65686728 30.51252733 85.41172663 38.31689713 81.13757324 46.10639954 C76.22825338 55.06088841 71.4741587 64.09438026 66.74914551 73.14717102 C66.08914551 73.14717102 65.42914551 73.14717102 64.74914551 73.14717102 C64.67824707 73.78783508 64.60734863 74.42849915 64.53430176 75.08857727 C63.41445787 79.45095422 61.31926955 83.13637093 59.18664551 87.08467102 C58.7362793 87.93005432 58.28591309 88.77543762 57.82189941 89.6464386 C55.17229295 94.59302627 52.43756651 99.47970198 49.62414551 104.33467102 C46.92765382 108.99322227 44.43054781 113.6933253 42.06164551 118.52217102 C36.63077146 129.57704729 30.6604229 140.34417271 24.74914551 151.14717102 C24.27041992 152.02453918 23.79169434 152.90190735 23.29846191 153.80586243 C18.09428407 163.3428467 12.80543602 172.82689779 7.43664551 182.27217102 C0.93521866 193.7212611 -5.30128676 205.30549253 -11.51452637 216.91279602 C-14.32443381 222.14699931 -17.16443487 227.36480409 -20.00085449 232.58467102 C-23.77587973 239.54032232 -27.51641117 246.51154905 -31.18835449 253.52217102 C-40.42803675 271.16294426 -49.8978998 288.69063718 -59.51647949 306.12763977 C-61.27877173 309.33052625 -62.97400912 312.55399582 -64.61022949 315.82295227 C-64.98494385 316.54724426 -65.3596582 317.27153625 -65.74572754 318.01777649 C-66.41907628 319.32135993 -67.07205227 320.63586269 -67.69543457 321.96406555 C-70.89484235 328.03516544 -75.97321925 331.60311495 -82.25085449 334.14717102 C-89.30197964 335.41947975 -96.57867075 335.03645185 -103.71179199 334.93623352 C-105.79159023 334.93078295 -107.87139703 334.92800962 -109.95120239 334.92778015 C-114.29028863 334.92008369 -118.62835272 334.88927217 -122.96716309 334.84004211 C-128.52562588 334.77754847 -134.08311659 334.75919347 -139.6418972 334.75625038 C-143.92792235 334.75155033 -148.21374142 334.73076719 -152.49968338 334.70437241 C-154.54977371 334.69232672 -156.59988647 334.68361563 -158.65000534 334.67831802 C-161.51001604 334.66709992 -164.3691049 334.63595576 -167.22888184 334.59883118 C-168.07259338 334.59861969 -168.91630493 334.5984082 -169.7855835 334.59819031 C-174.41128872 334.51394684 -177.49459144 334.14817805 -181.25085449 331.14717102 C-183.00923739 327.63040523 -182.02795403 323.86320997 -181.25085449 320.14717102 C-179.99866558 316.66260754 -178.41072871 313.39147577 -176.75085449 310.08467102 C-176.07482178 308.70287659 -176.07482178 308.70287659 -175.38513184 307.29316711 C-172.37610289 301.21072803 -169.17642082 295.25964757 -165.7857666 289.38276672 C-162.45727374 283.59926654 -159.3775201 277.69926332 -156.31335449 271.77217102 C-152.36027806 264.13892279 -148.3222044 256.57031501 -144.11486816 249.07441711 C-140.55101286 242.71803624 -137.08435117 236.31138951 -133.62585449 229.89717102 C-129.6204226 222.47588376 -125.54836567 215.11120092 -121.33288574 207.80732727 C-114.27353517 195.4824243 -107.62539539 182.91711867 -101.04040527 170.33418274 C-94.27318363 157.43256757 -87.23101283 144.67763771 -80.12585449 131.95967102 C-76.43184769 125.34048306 -72.86158636 118.66465515 -69.34753418 111.94844055 C-65.56385939 104.72228959 -61.72740881 97.52480394 -57.87585449 90.33467102 C-57.55556274 89.73644531 -57.235271 89.1382196 -56.90527344 88.52186584 C-52.58512812 80.45605394 -48.21698985 72.41774953 -43.81335449 64.39717102 C-40.43710303 58.24640368 -37.15801786 52.06944209 -34.06335449 45.77217102 C-30.45902055 38.44234128 -26.54050046 31.3227959 -22.46130371 24.24726868 C-21.61861433 22.78522469 -20.77935056 21.32120315 -19.94274902 19.85566711 C-18.61522489 17.53189712 -17.27827276 15.21381265 -15.93835449 12.89717102 C-15.52988281 12.1818219 -15.12141113 11.46647278 -14.70056152 10.72944641 C-10.95243463 4.30771728 -7.93927154 0.04506379 0 0 Z " fill="#0E94E1" transform="translate(185.2508544921875,77.85282897949219)"/>
<path d="M0 0 C1.3143528 -0.01062721 1.3143528 -0.01062721 2.65525818 -0.02146912 C3.60864075 -0.0189917 4.56202332 -0.01651428 5.54429626 -0.01396179 C6.55443283 -0.01907272 7.5645694 -0.02418365 8.60531616 -0.02944946 C11.94563208 -0.04335464 15.28574195 -0.04238831 18.62608337 -0.04008484 C20.94488604 -0.04397056 23.26368799 -0.04830497 25.58248901 -0.05307007 C30.44217741 -0.06053377 35.30179315 -0.06023938 40.16148376 -0.05497742 C46.39844863 -0.04917521 52.63511727 -0.0661314 58.87203312 -0.08932209 C63.65974678 -0.10402888 68.44738853 -0.10493542 73.23512077 -0.10181236 C75.53529384 -0.10232687 77.83547079 -0.10758871 80.13562202 -0.11762428 C83.34626364 -0.12991537 86.55632075 -0.12324153 89.76695251 -0.11161804 C90.72235931 -0.11926178 91.67776611 -0.12690552 92.66212463 -0.13478088 C93.53554001 -0.12776657 94.40895538 -0.12075226 95.30883789 -0.11352539 C96.44729455 -0.113777 96.44729455 -0.113777 97.60875034 -0.1140337 C100.16849944 0.36988634 101.06179834 1.17515372 102.59092712 3.26069641 C102.87841196 11.16652933 98.69745678 16.77379832 94.59092712 23.26069641 C89.89364096 30.78168201 85.36320404 38.22647201 81.59092712 46.26069641 C80.93092712 46.26069641 80.27092712 46.26069641 79.59092712 46.26069641 C79.44059021 47.54278992 79.44059021 47.54278992 79.28721619 48.8507843 C78.51838623 52.6159484 77.2205716 55.41174184 75.45030212 58.81929016 C75.13198929 59.43626266 74.81367645 60.05323517 74.48571777 60.68890381 C73.44616999 62.69667279 72.39408544 64.6975377 71.34092712 66.69819641 C70.61045078 68.09992073 69.88022877 69.5017776 69.1502533 70.90376282 C64.39096066 80.00805178 59.43526195 88.98613591 54.31871033 97.89497375 C49.79064212 105.80876865 45.58138144 113.86825243 41.40586853 121.97236633 C34.65441066 135.0590683 27.6587625 148.01713577 20.27842712 160.76069641 C17.16912319 166.15269997 14.37891956 171.6490825 11.63389587 177.23335266 C8.12789409 184.24355736 4.27067074 191.07379926 0.50108337 197.94429016 C-1.83376036 202.20044535 -4.13422334 206.47220135 -6.40907288 210.76069641 C-13.2413779 223.62412992 -20.22314657 236.40642957 -27.379776 249.09223938 C-33.42939029 259.81671203 -39.28860935 270.62132156 -45.03407288 281.51069641 C-51.16669584 293.1306921 -57.41500376 304.66630186 -64.07728577 315.99433899 C-65.04237765 317.63667593 -65.99581346 319.2858805 -66.94203186 320.93916321 C-67.45967102 321.83030823 -67.97731018 322.72145325 -68.51063538 323.63960266 C-68.9767926 324.44985901 -69.44294983 325.26011536 -69.92323303 326.09492493 C-72.80427927 330.29435989 -76.58600574 332.65300737 -81.40907288 334.26069641 C-84.34948999 334.36774247 -87.26655069 334.41796606 -90.20741272 334.42182922 C-91.1069014 334.42679413 -92.00639008 334.43175903 -92.93313599 334.43687439 C-95.91210186 334.45149294 -98.89101451 334.45829723 -101.87001038 334.46382141 C-103.93882753 334.46957276 -106.00764467 334.47533049 -108.07646179 334.48109436 C-112.41585031 334.49160323 -116.7552203 334.49744676 -121.09461975 334.50093079 C-126.65544349 334.50641774 -132.21602265 334.53045064 -137.77676964 334.55890274 C-142.05071224 334.57752364 -146.32459584 334.58273441 -150.59857559 334.58426666 C-152.64869653 334.58729454 -154.69881639 334.59532761 -156.74889755 334.60845184 C-159.61676928 334.62550202 -162.48404216 334.62363464 -165.35194397 334.61714172 C-166.19887314 334.62635651 -167.04580231 334.63557129 -167.918396 334.64506531 C-172.56650101 334.61209178 -175.63723597 334.28870557 -179.40907288 331.26069641 C-181.32368531 327.43147155 -180.89045117 323.891433 -179.71376038 319.90522766 C-175.85098134 309.99076147 -170.36725359 300.77637124 -165.20692444 291.49897766 C-163.30359989 288.07071899 -161.41336769 284.6353945 -159.52626038 281.19819641 C-153.2881254 269.8442326 -147.0078812 258.51816546 -140.59657288 247.26069641 C-134.26455295 236.13370648 -128.13307947 224.87078954 -122.48402405 213.37886047 C-121.07950784 210.61129686 -119.57263413 207.90724672 -118.06532288 205.19429016 C-117.39464232 203.98471442 -116.72407386 202.77507652 -116.05360413 201.56538391 C-115.70378479 200.93471008 -115.35396545 200.30403625 -114.99354553 199.6542511 C-110.04768297 190.73343821 -105.11197883 181.81273625 -100.40907288 172.76069641 C-96.30907503 164.87628747 -92.02907929 157.09551636 -87.72157288 149.32319641 C-79.80992874 135.04327415 -72.08949281 120.66646849 -64.40907288 106.26069641 C-61.80757066 101.3842712 -59.20337212 96.50929197 -56.59657288 91.63569641 C-56.12278198 90.74962708 -56.12278198 90.74962708 -55.63941956 89.84565735 C-51.85025558 82.76303477 -48.02010685 75.7072508 -44.09657288 68.69819641 C-36.61031125 55.30261547 -29.5635576 41.75369804 -23.04042053 27.86225891 C-19.41960195 20.18479583 -15.49863321 12.69729914 -11.40907288 5.26069641 C-10.74907288 5.26069641 -10.08907288 5.26069641 -9.40907288 5.26069641 C-9.07907288 4.27069641 -8.74907288 3.28069641 -8.40907288 2.26069641 C-5.58715254 0.41112988 -3.33431986 0.00901421 0 0 Z " fill="#44C5F4" transform="translate(490.40907287597656,77.73930358886719)"/>
<path d="M0 0 C1.01042862 -0.00569504 2.02085724 -0.01139008 3.06190491 -0.01725769 C6.39200327 -0.02834612 9.72012592 0.00366975 13.05004883 0.03735352 C15.36598988 0.04093075 17.68193534 0.04228801 19.99787903 0.04151917 C24.84586932 0.04620732 29.69319298 0.07102942 34.54101562 0.11132812 C40.76229566 0.1623832 46.98284541 0.17376842 53.20431042 0.17149258 C57.98349508 0.17230722 62.76251937 0.1887418 67.54165077 0.2104969 C69.83622334 0.22005676 72.1308141 0.22595909 74.4254055 0.22817802 C77.62636859 0.23466455 80.82654831 0.26088399 84.02734375 0.29296875 C84.97960846 0.29160919 85.93187317 0.29024963 86.91299438 0.28884888 C88.21878197 0.30804131 88.21878197 0.30804131 89.5509491 0.32762146 C90.30732257 0.33264899 91.06369604 0.33767653 91.84298992 0.34285641 C94.3844558 0.83904436 95.29542256 1.6598729 96.81958008 3.72875977 C96.75125902 9.82451631 94.25276054 14.34682316 91.38208008 19.54125977 C90.93396973 20.37165771 90.48585938 21.20205566 90.02416992 22.05761719 C88.63530897 24.62183634 87.23035639 27.17654169 85.81958008 29.72875977 C85.40466309 30.48157227 84.98974609 31.23438477 84.56225586 32.01000977 C82.53126564 35.68928036 80.4873233 39.36114465 78.43676758 43.02954102 C75.61775509 48.07964931 72.83907307 53.15135595 70.06958008 58.22875977 C69.57941406 59.12739746 69.08924805 60.02603516 68.58422852 60.9519043 C65.71214266 66.22722042 62.85720758 71.51156929 60.01489258 76.80297852 C59.53663025 77.69299057 59.53663025 77.69299057 59.04870605 78.60098267 C57.48467717 81.51214546 55.92269286 84.4243626 54.36352539 87.33813477 C53.79988281 88.3887207 53.23624023 89.43930664 52.65551758 90.52172852 C52.15584473 91.45525146 51.65617188 92.38877441 51.14135742 93.35058594 C49.81958008 95.72875977 49.81958008 95.72875977 47.81958008 98.72875977 C47.15958008 98.72875977 46.49958008 98.72875977 45.81958008 98.72875977 C45.66924316 100.02656372 45.66924316 100.02656372 45.51586914 101.35058594 C44.75962014 105.0196664 43.52666523 107.52917651 41.67895508 110.77954102 C41.20121391 111.63068481 41.20121391 111.63068481 40.71382141 112.49902344 C40.02928718 113.71709338 39.34088003 114.93299353 38.6489563 116.1468811 C36.80545849 119.38234511 34.99124599 122.63416653 33.17504883 125.88500977 C32.80621078 126.54374588 32.43737274 127.20248199 32.05735779 127.88117981 C28.53105019 134.19976911 25.18868834 140.60482727 21.88208008 147.04125977 C18.04897894 154.48708198 14.13500492 161.85909985 9.9831543 169.13183594 C7.40198333 173.66100469 4.93110463 178.23869682 2.50708008 182.85375977 C-1.38159078 190.25510853 -5.36843529 197.59925044 -9.38232422 204.93334961 C-13.39054858 212.26379109 -17.3530632 219.61807155 -21.30541992 226.97875977 C-27.53272652 238.56568913 -33.85617448 250.09396125 -40.33666992 261.54125977 C-41.0555983 262.8119922 -41.77434734 264.08282611 -42.49291992 265.35375977 C-42.84894287 265.98330566 -43.20496582 266.61285156 -43.57177734 267.26147461 C-47.64803965 274.50441269 -51.5705623 281.83059297 -55.51245117 289.1472168 C-58.74500317 295.13105938 -62.07586788 301.01936668 -65.56323242 306.85766602 C-68.01581055 311.2118808 -70.19503745 315.70111896 -72.34179688 320.21313477 C-75.57175879 326.88187434 -79.06540293 331.83446922 -86.18041992 334.72875977 C-89.43059561 335.28399101 -92.61607632 335.28648132 -95.90771484 335.26220703 C-96.85816177 335.2708226 -97.8086087 335.27943817 -98.78785706 335.28831482 C-101.91248208 335.31091888 -105.03620663 335.30424837 -108.16088867 335.29516602 C-110.33848842 335.30040241 -112.5160859 335.30667895 -114.69367981 335.31394958 C-119.24885768 335.32434227 -123.80372291 335.31980591 -128.35888672 335.30517578 C-134.20020087 335.28795138 -140.04053475 335.31153486 -145.88173962 335.34666538 C-150.37444086 335.3686021 -154.86690591 335.36720755 -159.35964394 335.35890007 C-161.51385896 335.35807925 -163.66809109 335.36496746 -165.82225609 335.3796711 C-168.82922558 335.39705662 -171.83441152 335.38262618 -174.84130859 335.35986328 C-175.73230255 335.37155548 -176.62329651 335.38324768 -177.54129028 335.39529419 C-183.53398838 335.30281349 -183.53398838 335.30281349 -186.76704407 332.43174744 C-188.73601494 328.6662211 -188.2707666 325.67889201 -187.18041992 321.72875977 C-185.78979492 318.32641602 -185.78979492 318.32641602 -183.93041992 314.79125977 C-183.58325928 314.12360596 -183.23609863 313.45595215 -182.87841797 312.76806641 C-182.09326194 311.26050627 -181.30282072 309.75569092 -180.50805664 308.25317383 C-179.05616414 305.49249555 -177.63447009 302.7174742 -176.21557617 299.93969727 C-169.34709944 286.53902951 -162.1239702 273.37940222 -154.65014648 260.30834961 C-152.5302971 256.58769701 -150.44428902 252.84881104 -148.36791992 249.10375977 C-147.98297363 248.40984131 -147.59802734 247.71592285 -147.20141602 247.00097656 C-144.56797846 242.24723837 -141.94438011 237.4880779 -139.32104492 232.72875977 C-137.92002862 230.18707912 -136.51898367 227.64541426 -135.11791992 225.10375977 C-134.76827179 224.46938995 -134.41862366 223.83502014 -134.05838013 223.181427 C-129.48939262 214.8932834 -124.89195665 206.62244579 -120.23901367 198.38110352 C-110.92327345 181.87521165 -101.85219647 165.23240886 -92.84448242 148.55688477 C-91.7273212 146.48916223 -90.61013382 144.42145383 -89.49291992 142.35375977 C-88.94635742 141.34168457 -88.39979492 140.32960937 -87.83666992 139.28686523 C-84.73991162 133.56552946 -81.58984805 127.8803966 -78.36791992 122.22875977 C-75.46853947 117.13872184 -72.76444475 111.98573849 -70.18041992 106.72875977 C-67.63694523 101.55461976 -64.97814327 96.48480725 -62.11791992 91.47875977 C-57.92271088 84.1324826 -53.91431021 76.69139363 -49.93041992 69.22875977 C-48.62582754 66.78600062 -47.3211398 64.34329243 -46.01635742 61.90063477 C-45.69305954 61.29529907 -45.36976166 60.68996338 -45.03666687 60.06628418 C-41.37669327 53.21762266 -37.68330049 46.38713858 -33.97021484 39.56713867 C-31.17636734 34.43280285 -28.41322999 29.28489326 -25.69213867 24.11157227 C-24.82613037 22.47816895 -24.82613037 22.47816895 -23.94262695 20.81176758 C-22.84231339 18.73504821 -21.75027684 16.65391334 -20.66821289 14.56762695 C-20.16821777 13.62822266 -19.66822266 12.68881836 -19.15307617 11.72094727 C-18.72260986 10.89965332 -18.29214355 10.07835938 -17.84863281 9.23217773 C-12.63550504 1.40905287 -9.16788036 -0.16334623 0 0 Z " fill="#0D92DF" transform="translate(343.180419921875,77.271240234375)"/>
<path d="M0 0 C1.51564293 -0.00854256 1.51564293 -0.00854256 3.06190491 -0.01725769 C6.39200327 -0.02834612 9.72012592 0.00366975 13.05004883 0.03735352 C15.36598988 0.04093075 17.68193534 0.04228801 19.99787903 0.04151917 C24.84586932 0.04620732 29.69319298 0.07102942 34.54101562 0.11132812 C40.76229566 0.1623832 46.98284541 0.17376842 53.20431042 0.17149258 C57.98349508 0.17230722 62.76251937 0.1887418 67.54165077 0.2104969 C69.83622334 0.22005676 72.1308141 0.22595909 74.4254055 0.22817802 C77.62636859 0.23466455 80.82654831 0.26088399 84.02734375 0.29296875 C85.45574081 0.29092941 85.45574081 0.29092941 86.91299438 0.28884888 C88.21878197 0.30804131 88.21878197 0.30804131 89.5509491 0.32762146 C90.30732257 0.33264899 91.06369604 0.33767653 91.84298992 0.34285641 C94.3844558 0.83904436 95.29542256 1.6598729 96.81958008 3.72875977 C96.75125902 9.82451631 94.25276054 14.34682316 91.38208008 19.54125977 C90.93396973 20.37165771 90.48585938 21.20205566 90.02416992 22.05761719 C88.63530897 24.62183634 87.23035639 27.17654169 85.81958008 29.72875977 C85.40466309 30.48157227 84.98974609 31.23438477 84.56225586 32.01000977 C82.53126564 35.68928036 80.4873233 39.36114465 78.43676758 43.02954102 C75.61775509 48.07964931 72.83907307 53.15135595 70.06958008 58.22875977 C69.57941406 59.12739746 69.08924805 60.02603516 68.58422852 60.9519043 C65.71214266 66.22722042 62.85720758 71.51156929 60.01489258 76.80297852 C59.69605103 77.39631989 59.37720947 77.98966125 59.04870605 78.60098267 C57.48467717 81.51214546 55.92269286 84.4243626 54.36352539 87.33813477 C53.79988281 88.3887207 53.23624023 89.43930664 52.65551758 90.52172852 C52.15584473 91.45525146 51.65617187 92.38877441 51.14135742 93.35058594 C49.81958008 95.72875977 49.81958008 95.72875977 47.81958008 98.72875977 C47.15958008 98.72875977 46.49958008 98.72875977 45.81958008 98.72875977 C45.68011963 100.00372314 45.68011963 100.00372314 45.5378418 101.30444336 C44.73473992 105.13323563 43.23655832 108.15481291 41.32739258 111.51782227 C40.98078583 112.14353119 40.63417908 112.76924011 40.27706909 113.41390991 C39.54652941 114.72885671 38.81176117 116.04146227 38.07299805 117.35180664 C36.94668473 119.35002585 35.83325481 121.35498879 34.72192383 123.36157227 C34.00782007 124.64323484 33.2930003 125.9244988 32.57739258 127.20532227 C32.24603302 127.8001944 31.91467346 128.39506653 31.57327271 129.00796509 C29.83693146 132.08161743 28.01654033 134.96369324 25.81958008 137.72875977 C25.81958008 136.73875977 25.81958008 135.74875977 25.81958008 134.72875977 C24.82958008 134.39875977 23.83958008 134.06875977 22.81958008 133.72875977 C23.69458008 128.97875977 23.69458008 128.97875977 24.81958008 126.72875977 C24.15958008 126.72875977 23.49958008 126.72875977 22.81958008 126.72875977 C23.31458008 125.24375977 23.31458008 125.24375977 23.81958008 123.72875977 C24.47958008 123.72875977 25.13958008 123.72875977 25.81958008 123.72875977 C25.81958008 124.38875977 25.81958008 125.04875977 25.81958008 125.72875977 C26.80958008 125.72875977 27.79958008 125.72875977 28.81958008 125.72875977 C28.15958008 125.39875977 27.49958008 125.06875977 26.81958008 124.72875977 C27.31458008 122.74875977 27.31458008 122.74875977 27.81958008 120.72875977 C26.33458008 119.73875977 26.33458008 119.73875977 24.81958008 118.72875977 C25.47958008 118.06875977 26.13958008 117.40875977 26.81958008 116.72875977 C24.83958008 116.72875977 22.85958008 116.72875977 20.81958008 116.72875977 C21.14958008 115.96563477 21.47958008 115.20250977 21.81958008 114.41625977 C22.99394693 111.73806841 22.99394693 111.73806841 22.81958008 108.72875977 C21.36124649 107.10361509 21.36124649 107.10361509 19.81958008 105.72875977 C19.81958008 105.39875977 19.81958008 105.06875977 19.81958008 104.72875977 C17.86958879 104.92347087 17.86958879 104.92347087 15.81958008 105.72875977 C14.53521274 107.71253646 14.53521274 107.71253646 13.81958008 109.72875977 C12.33458008 109.23375977 12.33458008 109.23375977 10.81958008 108.72875977 C11.02583008 108.11000977 11.23208008 107.49125977 11.44458008 106.85375977 C11.63020508 105.80188477 11.63020508 105.80188477 11.81958008 104.72875977 C11.15958008 104.06875977 10.49958008 103.40875977 9.81958008 102.72875977 C7.84412277 100.75330245 7.44239096 98.37570602 6.81958008 95.72875977 C7.80958008 94.40875977 8.79958008 93.08875977 9.81958008 91.72875977 C6.51958008 91.72875977 3.21958008 91.72875977 -0.18041992 91.72875977 C-0.67541992 93.21375977 -0.67541992 93.21375977 -1.18041992 94.72875977 C-3.16041992 95.05875977 -5.14041992 95.38875977 -7.18041992 95.72875977 C-7.51041992 94.73875977 -7.84041992 93.74875977 -8.18041992 92.72875977 C-8.84041992 92.72875977 -9.50041992 92.72875977 -10.18041992 92.72875977 C-9.85041992 94.37875977 -9.52041992 96.02875977 -9.18041992 97.72875977 C-11.78624364 98.65941109 -12.82240216 98.87793383 -15.43041992 97.79125977 C-16.00791992 97.44063477 -16.58541992 97.09000977 -17.18041992 96.72875977 C-17.18041992 95.73875977 -17.18041992 94.74875977 -17.18041992 93.72875977 C-16.52041992 93.72875977 -15.86041992 93.72875977 -15.18041992 93.72875977 C-15.18041992 93.06875977 -15.18041992 92.40875977 -15.18041992 91.72875977 C-16.22842773 91.54700195 -16.22842773 91.54700195 -17.29760742 91.36157227 C-18.20768555 91.19399414 -19.11776367 91.02641602 -20.05541992 90.85375977 C-20.9603418 90.69133789 -21.86526367 90.52891602 -22.79760742 90.36157227 C-25.18041992 89.72875977 -25.18041992 89.72875977 -27.18041992 87.72875977 C-26.72795898 88.58147461 -26.72795898 88.58147461 -26.26635742 89.45141602 C-24.53921543 93.073444 -23.38098199 96.7031925 -23.18041992 100.72875977 C-25.05541992 103.79125977 -25.05541992 103.79125977 -27.18041992 105.72875977 C-29.32327706 98.30018834 -29.32327706 98.30018834 -30.18041992 94.72875977 C-31.83041992 94.72875977 -33.48041992 94.72875977 -35.18041992 94.72875977 C-35.51041992 94.06875977 -35.84041992 93.40875977 -36.18041992 92.72875977 C-35.24291992 90.60375977 -35.24291992 90.60375977 -34.18041992 88.72875977 C-36.50896456 87.53037768 -36.50896456 87.53037768 -39.18041992 86.72875977 C-40.66541992 87.71875977 -40.66541992 87.71875977 -42.18041992 88.72875977 C-42.51041992 88.72875977 -42.84041992 88.72875977 -43.18041992 88.72875977 C-43.51041992 89.38875977 -43.84041992 90.04875977 -44.18041992 90.72875977 C-44.51041992 91.38875977 -44.84041992 92.04875977 -45.18041992 92.72875977 C-44.52041992 93.05875977 -43.86041992 93.38875977 -43.18041992 93.72875977 C-44.66541992 94.22375977 -44.66541992 94.22375977 -46.18041992 94.72875977 C-46.51041992 95.38875977 -46.84041992 96.04875977 -47.18041992 96.72875977 C-47.18041992 95.73875977 -47.18041992 94.74875977 -47.18041992 93.72875977 C-49.69007606 94.43215543 -49.69007606 94.43215543 -52.18041992 95.72875977 C-53.06735296 97.76981616 -53.06735296 97.76981616 -53.18041992 99.72875977 C-53.84041992 99.39875977 -54.50041992 99.06875977 -55.18041992 98.72875977 C-55.18041992 98.06875977 -55.18041992 97.40875977 -55.18041992 96.72875977 C-55.84041992 96.72875977 -56.50041992 96.72875977 -57.18041992 96.72875977 C-57.18041992 97.38875977 -57.18041992 98.04875977 -57.18041992 98.72875977 C-59.49041992 98.39875977 -61.80041992 98.06875977 -64.18041992 97.72875977 C-64.51041992 99.37875977 -64.84041992 101.02875977 -65.18041992 102.72875977 C-64.52041992 103.05875977 -63.86041992 103.38875977 -63.18041992 103.72875977 C-64.83041992 103.72875977 -66.48041992 103.72875977 -68.18041992 103.72875977 C-64.12760638 95.30317372 -59.69388011 87.10898921 -55.19897461 78.91381836 C-50.97789278 71.21104882 -46.81933322 63.47587523 -42.68041992 55.72875977 C-37.56264595 46.15284907 -32.41570694 36.59381327 -27.18969727 27.07641602 C-25.11814091 23.30142207 -23.05920301 19.52548482 -21.09448242 15.69360352 C-20.5040918 14.55020508 -19.91370117 13.40680664 -19.30541992 12.22875977 C-18.83362305 11.29032227 -18.36182617 10.35188477 -17.87573242 9.38500977 C-12.7846535 1.40820408 -9.18560852 -0.1636621 0 0 Z M-19.18041992 96.72875977 C-18.19041992 97.22375977 -18.19041992 97.22375977 -17.18041992 97.72875977 C-18.17041992 98.22375977 -18.17041992 98.22375977 -19.18041992 98.72875977 C-19.18041992 98.06875977 -19.18041992 97.40875977 -19.18041992 96.72875977 Z M19.81958008 108.72875977 C21.81958008 109.72875977 21.81958008 109.72875977 21.81958008 109.72875977 Z " fill="#109AE6" transform="translate(343.180419921875,77.271240234375)"/>
<path d="M0 0 C0.93423645 3.01031744 1.04449911 3.86650268 0 7 C-0.34022786 8.99883869 -0.67329097 10.99890722 -1 13 C-1.31674575 14.33737094 -1.64270064 15.67288808 -2 17 C-1.34 17 -0.68 17 0 17 C0 17.66 0 18.32 0 19 C-0.66 19 -1.32 19 -2 19 C-0.69844994 23.07964281 -0.69844994 23.07964281 1 27 C0.67 27.66 0.34 28.32 0 29 C2.475 29.99 2.475 29.99 5 31 C4.40917986 32.48454806 3.80187345 33.96254351 3.1875 35.4375 C2.85105469 36.26121094 2.51460937 37.08492188 2.16796875 37.93359375 C1 40 1 40 -2 41 C-2 40.34 -2 39.68 -2 39 C-2.99 39.66 -3.98 40.32 -5 41 C-4.34 41 -3.68 41 -3 41 C-2.3125 43.8125 -2.3125 43.8125 -2 47 C-3.4375 48.875 -3.4375 48.875 -5 50 C-7 47 -7 47 -7 46 C-8.485 46.495 -8.485 46.495 -10 47 C-9.01 47.66 -8.02 48.32 -7 49 C-7 51 -7 51 -8.5 52.625 C-8.995 53.07875 -9.49 53.5325 -10 54 C-9.34 54 -8.68 54 -8 54 C-8 54.66 -8 55.32 -8 56 C-6.515 56.495 -6.515 56.495 -5 57 C-5.66 57 -6.32 57 -7 57 C-6.67 58.32 -6.34 59.64 -6 61 C-6.99 61 -7.98 61 -9 61 C-9 61.99 -9 62.98 -9 64 C-7.515 63.505 -7.515 63.505 -6 63 C-3.9375 63.4375 -3.9375 63.4375 -2 64 C-1.34 64 -0.68 64 0 64 C-0.66 65.65 -1.32 67.3 -2 69 C-2.495 68.01 -2.495 68.01 -3 67 C-6.11785113 67.64644661 -6.11785113 67.64644661 -7 70 C-6.08637695 69.96970703 -5.17275391 69.93941406 -4.23144531 69.90820312 C11.67705934 69.39078866 27.58177472 68.90118847 43.5 68.875 C45.15854004 68.86823242 45.15854004 68.86823242 46.85058594 68.86132812 C53.6185907 68.87379605 60.27191626 69.26672573 67 70 C67 70.33 67 70.66 67 71 C55.091278 71.20020265 43.18242684 71.38392336 31.27312946 71.54658794 C25.74320193 71.62263747 20.21347992 71.70436879 14.68383789 71.79907227 C9.34773334 71.89025228 4.01160507 71.96652394 -1.32486916 72.03244972 C-3.36110193 72.06022753 -5.39726866 72.09338271 -7.43332481 72.13199425 C-10.28458206 72.18514787 -13.13547485 72.21920003 -15.98706055 72.2487793 C-17.25049789 72.27898415 -17.25049789 72.27898415 -18.53945923 72.30979919 C-23.1930391 72.33536287 -26.22367979 72.04013102 -30 69 C-31.7583829 65.48323421 -30.77709954 61.71603894 -30 58 C-28.74781239 54.51544014 -27.15987361 51.24430114 -25.5 47.9375 C-25.05003662 47.01775391 -24.60007324 46.09800781 -24.13647461 45.15039062 C-21.1105531 39.0337254 -17.89554529 33.04510983 -14.48657227 27.13452148 C-9.3667017 18.24807505 -4.71591239 9.105124 0 0 Z M-3 36 C-1.515 36.99 -1.515 36.99 0 38 C0 37.34 0 36.68 0 36 C-0.99 36 -1.98 36 -3 36 Z " fill="#0F90DC" transform="translate(34,340)"/>
<path d="M0 0 C1.175625 0.495 1.175625 0.495 2.375 1 C4.84332497 2.11866511 4.84332497 2.11866511 7 2 C7.18175781 2.54269531 7.36351563 3.08539063 7.55078125 3.64453125 C7.80214844 4.35996094 8.05351563 5.07539063 8.3125 5.8125 C8.55613281 6.52019531 8.79976563 7.22789062 9.05078125 7.95703125 C10.06918729 10.14890927 11.28965424 11.32798132 13 13 C13 13.66 13 14.32 13 15 C13.99 15.495 13.99 15.495 15 16 C11.68248407 17.65875797 7.97402946 17.12889303 4.32763672 17.11352539 C3.43001617 17.11367142 2.53239563 17.11381744 1.60757446 17.1139679 C-1.36841218 17.11326953 -4.34433675 17.10548067 -7.3203125 17.09765625 C-9.38011643 17.0957918 -11.43992081 17.09436802 -13.49972534 17.09336853 C-18.92817402 17.08954548 -24.35659605 17.07971699 -29.78503418 17.06866455 C-35.32152954 17.05844588 -40.85802919 17.05386993 -46.39453125 17.04882812 C-57.26303256 17.03809455 -68.13151406 17.02102065 -79 17 C-79 16.67 -79 16.34 -79 16 C-43.855 15.505 -43.855 15.505 -8 15 C-7.67 13.68 -7.34 12.36 -7 11 C-6.01 11.99 -6.01 11.99 -5 13 C-5 11.02 -5 9.04 -5 7 C-4.34 7 -3.68 7 -3 7 C-3 6.34 -3 5.68 -3 5 C-2.01 5 -1.02 5 0 5 C0 3.35 0 1.7 0 0 Z " fill="#0780D7" transform="translate(90,395)"/>
<path d="M0 0 C1.4606285 2.64738916 2 3.89448334 2 7 C2.33 7.99 2.66 8.98 3 10 C1.88750845 12.96664412 0.32947183 14.88229834 -2 17 C-1.01 18.65 -0.02 20.3 1 22 C1.33 21.01 1.66 20.02 2 19 C2.66 19 3.32 19 4 19 C3.34 21.31 2.68 23.62 2 26 C1.01 26 0.02 26 -1 26 C-1.99 26.33 -2.98 26.66 -4 27 C-3.67 27.66 -3.34 28.32 -3 29 C-3.66 29 -4.32 29 -5 29 C-5.33 29.66 -5.66 30.32 -6 31 C-6.66 30.67 -7.32 30.34 -8 30 C-9.32 30 -10.64 30 -12 30 C-12.33 31.98 -12.66 33.96 -13 36 C-15.31 36.66 -17.62 37.32 -20 38 C-16.40116952 30.67067451 -12.67357647 23.41489863 -8.875 16.1875 C-8.45557129 15.38787842 -8.03614258 14.58825684 -7.60400391 13.7644043 C-5.15697296 9.12200113 -2.63106075 4.54070162 0 0 Z M0 18 C2 19 2 19 2 19 Z " fill="#189BE5" transform="translate(124,175)"/>
<path d="M0 0 C0.66 0.99 1.32 1.98 2 3 C1.2890625 5.35546875 1.2890625 5.35546875 0 8 C-0.42539062 8.88300781 -0.85078125 9.76601562 -1.2890625 10.67578125 C-1.72992188 11.54589844 -2.17078125 12.41601562 -2.625 13.3125 C-3.07101563 14.19550781 -3.51703125 15.07851562 -3.9765625 15.98828125 C-4.48316406 16.98408203 -4.48316406 16.98408203 -5 18 C-5.66 18 -6.32 18 -7 18 C-7.11931885 18.73065674 -7.2386377 19.46131348 -7.36157227 20.21411133 C-7.99783526 22.99055379 -8.88620653 25.06563848 -10.21484375 27.57421875 C-10.65376953 28.40630859 -11.09269531 29.23839844 -11.54492188 30.09570312 C-12.00447266 30.95099609 -12.46402344 31.80628906 -12.9375 32.6875 C-13.39318359 33.55439453 -13.84886719 34.42128906 -14.31835938 35.31445312 C-17.7264457 41.7264457 -17.7264457 41.7264457 -20 44 C-19.71788123 42.3733152 -19.42397625 40.74867104 -19.125 39.125 C-18.96257812 38.22007812 -18.80015625 37.31515625 -18.6328125 36.3828125 C-18 34 -18 34 -16 32 C-16.33 31.01 -16.66 30.02 -17 29 C-16.67 28.01 -16.34 27.02 -16 26 C-17.32 25.34 -18.64 24.68 -20 24 C-19.34 23.67 -18.68 23.34 -18 23 C-18 22.34 -18 21.68 -18 21 C-17.01 21 -16.02 21 -15 21 C-14.71125 20.360625 -14.4225 19.72125 -14.125 19.0625 C-13 17 -13 17 -11 16 C-10.34786708 13.97536745 -10.34786708 13.97536745 -10 12 C-10.66 11.67 -11.32 11.34 -12 11 C-10.741875 10.649375 -9.48375 10.29875 -8.1875 9.9375 C-5.68349003 9.0217225 -4.34207384 8.50622336 -2.8359375 6.27734375 C-2.13445039 4.55196888 -1.55929021 2.77656891 -1 1 C-0.67 0.67 -0.34 0.34 0 0 Z " fill="#179BE6" transform="translate(257,133)"/>
<path d="M0 0 C0.93423645 3.01031744 1.04449911 3.86650268 0 7 C-0.34022786 8.99883869 -0.67329097 10.99890722 -1 13 C-1.31674575 14.33737094 -1.64270064 15.67288808 -2 17 C-1.34 17 -0.68 17 0 17 C0 17.66 0 18.32 0 19 C-0.66 19 -1.32 19 -2 19 C-0.69844994 23.07964281 -0.69844994 23.07964281 1 27 C0.67 27.66 0.34 28.32 0 29 C0.66 29 1.32 29 2 29 C2 29.66 2 30.32 2 31 C0.02 30.67 -1.96 30.34 -4 30 C-4.33 30.99 -4.66 31.98 -5 33 C-5 32.01 -5 31.02 -5 30 C-5.99 29.67 -6.98 29.34 -8 29 C-8 28.01 -8 27.02 -8 26 C-8.66 26 -9.32 26 -10 26 C-10.33 26.66 -10.66 27.32 -11 28 C-11.99 28.33 -12.98 28.66 -14 29 C-12.72287446 24.89306101 -11.18709006 21.18406415 -9.1796875 17.3828125 C-8.64472656 16.36445313 -8.10976563 15.34609375 -7.55859375 14.296875 C-7.00300781 13.25015625 -6.44742187 12.2034375 -5.875 11.125 C-5.31167969 10.05507813 -4.74835937 8.98515625 -4.16796875 7.8828125 C-2.78265261 5.25305983 -1.39322404 2.62556917 0 0 Z " fill="#1291DE" transform="translate(34,340)"/>
<path d="M0 0 C0.33 0 0.66 0 1 0 C1 2.31 1 4.62 1 7 C1.66 7 2.32 7 3 7 C3 7.66 3 8.32 3 9 C2.34 9 1.68 9 1 9 C0.731875 9.763125 0.46375 10.52625 0.1875 11.3125 C-0.96603641 13.92313504 -1.98629865 15.07385089 -4 17 C-4.33 17.99 -4.66 18.98 -5 20 C-6 21 -7 22 -8 23 C-8.33 23.99 -8.66 24.98 -9 26 C-9.99 26 -10.98 26 -12 26 C-13.10844919 29.32534757 -12.84454356 31.62182575 -12 35 C-13.98 34.67 -15.96 34.34 -18 34 C-12.36714524 22.45107433 -6.31887723 11.18752034 0 0 Z M-16 35 C-15.01 35.495 -15.01 35.495 -14 36 C-14.33 36.99 -14.66 37.98 -15 39 C-15.33 37.68 -15.66 36.36 -16 35 Z " fill="#2397E1" transform="translate(56,300)"/>
<path d="M0 0 C1.09658936 3.28976808 0.79953138 4.71303767 0 8 C1.32 7.67 2.64 7.34 4 7 C4.33 9.31 4.66 11.62 5 14 C2.69 14.33 0.38 14.66 -2 15 C-2 15.66 -2 16.32 -2 17 C-3.25 18.375 -3.25 18.375 -5 20 C-7.35179887 22.28053224 -9.17122711 24.25684066 -11 27 C-11 26.34 -11 25.68 -11 25 C-11.66 24.67 -12.32 24.34 -13 24 C-8.71 16.08 -4.42 8.16 0 0 Z " fill="#1893DF" transform="translate(206,306)"/>
<path d="M0 0 C0.33 0.66 0.66 1.32 1 2 C1.66 2.33 2.32 2.66 3 3 C-0.96 10.59 -4.92 18.18 -9 26 C-9.33 26 -9.66 26 -10 26 C-10 23.69 -10 21.38 -10 19 C-9.34 18.67 -8.68 18.34 -8 18 C-8.56739868 13.87026372 -8.56739868 13.87026372 -10 10 C-9.01 10 -8.02 10 -7 10 C-7.2475 9.2575 -7.495 8.515 -7.75 7.75 C-8 5 -8 5 -6.3125 2.75 C-4.08903214 1.06737567 -2.72339328 0.38905618 0 0 Z " fill="#1A9CE6" transform="translate(231,181)"/>
<path d="M0 0 C0.99 0.33 1.98 0.66 3 1 C2.67 2.65 2.34 4.3 2 6 C0.68 6.33 -0.64 6.66 -2 7 C-2 7.66 -2 8.32 -2 9 C-0.68 9.33 0.64 9.66 2 10 C1.1875 11.9375 1.1875 11.9375 0 14 C-0.99 14.33 -1.98 14.66 -3 15 C-2.67 15.99 -2.34 16.98 -2 18 C-3.375 19.5 -3.375 19.5 -5 21 C-5.66 21 -6.32 21 -7 21 C-7 21.66 -7 22.32 -7 23 C-8.32 23 -9.64 23 -11 23 C-11 23.66 -11 24.32 -11 25 C-11.66 24.67 -12.32 24.34 -13 24 C-8.71 16.08 -4.42 8.16 0 0 Z " fill="#1B97E1" transform="translate(254,219)"/>
<path d="M0 0 C2.43929746 1.92576115 4.80090595 3.80090595 7 6 C2.25 9 2.25 9 0 9 C0 10.32 0 11.64 0 13 C0.66 13 1.32 13 2 13 C2 13.66 2 14.32 2 15 C2.66 15 3.32 15 4 15 C4.33 14.34 4.66 13.68 5 13 C5.33 13.66 5.66 14.32 6 15 C19.86 15.495 19.86 15.495 34 16 C34 16.33 34 16.66 34 17 C29.3746371 17.26690644 24.74925904 17.49992493 20.12060547 17.7019043 C18.54690373 17.7753221 16.97360239 17.85792838 15.40087891 17.94995117 C13.13747475 18.08077965 10.8746784 18.17830076 8.609375 18.26953125 C7.90818542 18.31721146 7.20699585 18.36489166 6.48455811 18.41401672 C4.48339844 18.47583008 4.48339844 18.47583008 1 18 C-2.85185 14.26166453 -2.85185 14.26166453 -3.2421875 10.9375 C-3.12101563 10.298125 -2.99984375 9.65875 -2.875 9 C-2.68744141 7.9790625 -2.68744141 7.9790625 -2.49609375 6.9375 C-1.87621133 4.5165419 -1.06043861 2.26226903 0 0 Z " fill="#1A93DE" transform="translate(158,394)"/>
<path d="M0 0 C0.33 0 0.66 0 1 0 C1 2.31 1 4.62 1 7 C2.32 7.33 3.64 7.66 5 8 C4.01 8.33 3.02 8.66 2 9 C3.32 10.32 4.64 11.64 6 13 C5 14 4 15 3 16 C2.54625 16.5775 2.0925 17.155 1.625 17.75 C0 19 0 19 -2.5625 19 C-5 18 -5 18 -6.36328125 15.86328125 C-7.2557672 11.84983217 -5.65031081 9.52702904 -3.625 6.1875 C-3.11066406 5.2912793 -3.11066406 5.2912793 -2.5859375 4.37695312 C-1.74012879 2.90853523 -0.87217342 1.45291328 0 0 Z " fill="#139AE6" transform="translate(146,134)"/>
<path d="M0 0 C1.67542976 0.28604898 3.34385343 0.61781233 5 1 C4.53650525 7.1311411 2.50852012 11.52698225 -0.4375 16.875 C-0.84548828 17.64585937 -1.25347656 18.41671875 -1.67382812 19.2109375 C-4.72292232 24.86146116 -4.72292232 24.86146116 -7 26 C-7 25.01 -7 24.02 -7 23 C-7.66 23 -8.32 23 -9 23 C-9.66 21.02 -10.32 19.04 -11 17 C-7.71303767 16.20046862 -6.28976808 15.90341064 -3 17 C-2.86722656 16.38511719 -2.73445312 15.77023437 -2.59765625 15.13671875 C-2.33275391 13.92435547 -2.33275391 13.92435547 -2.0625 12.6875 C-1.88847656 11.88699219 -1.71445313 11.08648437 -1.53515625 10.26171875 C-1 8 -1 8 0 5 C-0.31478446 3.66216607 -0.64587656 2.32796291 -1 1 C-0.67 0.67 -0.34 0.34 0 0 Z " fill="#1C94DF" transform="translate(133,355)"/>
<path d="M0 0 C0 0.66 0 1.32 0 2 C1.32 2.33 2.64 2.66 4 3 C1.03 8.28 -1.94 13.56 -5 19 C-5.33 19 -5.66 19 -6 19 C-6.33 17.02 -6.66 15.04 -7 13 C-7.99 13.33 -8.98 13.66 -10 14 C-9.67 13.01 -9.34 12.02 -9 11 C-8.01 11 -7.02 11 -6 11 C-6.061875 9.9275 -6.12375 8.855 -6.1875 7.75 C-5.94581472 2.91629443 -5.21868173 0 0 0 Z " fill="#1C96E1" transform="translate(318,301)"/>
<path d="M0 0 C0.66 0.33 1.32 0.66 2 1 C2 1.66 2 2.32 2 3 C4.64 3 7.28 3 10 3 C7.77237854 5.56176468 6.32413755 6.41005456 3 7 C0.95234717 7.05944123 -1.09733506 7.05919509 -3.14550781 7.02172852 C-4.38649231 7.00163223 -5.62747681 6.98153595 -6.90606689 6.96083069 C-8.25508857 6.93363664 -9.60410789 6.90632576 -10.953125 6.87890625 C-12.33745529 6.85459196 -13.72179394 6.83074906 -15.10614014 6.80735779 C-18.74269149 6.74464699 -22.3790942 6.67554386 -26.01550293 6.60510254 C-29.72901667 6.53430132 -33.44263545 6.469555 -37.15625 6.40429688 C-44.43761621 6.27545227 -51.71883603 6.13985343 -59 6 C-59 5.67 -59 5.34 -59 5 C-51.50706503 4.83187806 -44.01398739 4.67196827 -36.52075195 4.51782227 C-33.97058118 4.46438578 -31.42044937 4.40905518 -28.87036133 4.35180664 C-25.20923262 4.26994201 -21.54801875 4.19484477 -17.88671875 4.12109375 C-16.7428923 4.09405869 -15.59906586 4.06702362 -14.420578 4.03916931 C-13.35970474 4.01907303 -12.29883148 3.99897675 -11.20581055 3.97827148 C-10.27093307 3.95828598 -9.3360556 3.93830048 -8.37284851 3.91770935 C-6 4 -6 4 -3 5 C-2.67 4.34 -2.34 3.68 -2 3 C-2 3.66 -2 4.32 -2 5 C-1.34 5 -0.68 5 0 5 C-0.2784375 4.0409375 -0.2784375 4.0409375 -0.5625 3.0625 C-0.706875 2.381875 -0.85125 1.70125 -1 1 C-0.67 0.67 -0.34 0.34 0 0 Z " fill="#1197DE" transform="translate(252,405)"/>
<path d="M0 0 C0.93423645 3.01031744 1.04449911 3.86650268 0 7 C-0.34022786 8.99883869 -0.67329097 10.99890722 -1 13 C-1.31674575 14.33737094 -1.64270064 15.67288808 -2 17 C-1.34 17.33 -0.68 17.66 0 18 C-1.98 18.99 -1.98 18.99 -4 20 C-4 20.66 -4 21.32 -4 22 C-6.31 22.33 -8.62 22.66 -11 23 C-9.44347945 17.6462535 -7.0182491 12.99849053 -4.375 8.125 C-3.95476563 7.34125 -3.53453125 6.5575 -3.1015625 5.75 C-2.0718978 3.83107943 -1.03652433 1.91522397 0 0 Z " fill="#1394DF" transform="translate(34,340)"/>
<path d="M0 0 C0.66 0.66 1.32 1.32 2 2 C1.34 2 0.68 2 0 2 C0.57344937 4.86724686 0.8614515 5.8614515 3 8 C2.01 8.495 2.01 8.495 1 9 C0.67 9.99 0.34 10.98 0 12 C-0.93070313 12.25523437 -1.86140625 12.51046875 -2.8203125 12.7734375 C-7.1354385 14.4379947 -7.87083415 16.53650167 -9.875 20.625 C-10.18179688 21.23601562 -10.48859375 21.84703125 -10.8046875 22.4765625 C-11.55421897 23.97562543 -12.27959537 25.486724 -13 27 C-13.66 27 -14.32 27 -15 27 C-5.70169492 2.85084746 -5.70169492 2.85084746 0 0 Z " fill="#1A92DD" transform="translate(174,367)"/>
<path d="M0 0 C1.5234375 1.3828125 1.5234375 1.3828125 3 3 C2.625 4.875 2.625 4.875 2 7 C2.38567131 9.68149993 2.38567131 9.68149993 3 12 C2.34 12 1.68 12 1 12 C1 12.99 1 13.98 1 15 C-0.65 15.66 -2.3 16.32 -4 17 C-4.99 16.01 -5.98 15.02 -7 14 C-5.23570801 9.02790438 -2.6060834 4.56561939 0 0 Z " fill="#1699E4" transform="translate(91,236)"/>
<path d="M0 0 C0.99 0 1.98 0 3 0 C1.44347945 5.3537465 -0.9817509 10.00150947 -3.625 14.875 C-4.04523438 15.65875 -4.46546875 16.4425 -4.8984375 17.25 C-5.9281022 19.16892057 -6.96347567 21.08477603 -8 23 C-10.67927341 18.98108988 -10.15601248 16.75838077 -10 12 C-8.68 11.67 -7.36 11.34 -6 11 C-6 10.34 -6 9.68 -6 9 C-5.34 8.67 -4.68 8.34 -4 8 C-3.67 7.01 -3.34 6.02 -3 5 C-2.34 5 -1.68 5 -1 5 C-1.33 4.01 -1.66 3.02 -2 2 C-1.34 1.34 -0.68 0.68 0 0 Z " fill="#2196E0" transform="translate(149,333)"/>
<path d="M0 0 C2.68932396 4.87439967 1.81589461 8.59469823 1 14 C0.34 14 -0.32 14 -1 14 C-1.66 15.32 -2.32 16.64 -3 18 C-3 17.34 -3 16.68 -3 16 C-3.99 16.33 -4.98 16.66 -6 17 C-6 17.99 -6 18.98 -6 20 C-6.99 19.67 -7.98 19.34 -9 19 C-7.6077541 14.37324343 -5.70479016 10.35313769 -3.375 6.125 C-2.74335938 4.97257812 -2.11171875 3.82015625 -1.4609375 2.6328125 C-0.97882813 1.76398438 -0.49671875 0.89515625 0 0 Z " fill="#2599E1" transform="translate(189,336)"/>
<path d="M0 0 C1.32 0.33 2.64 0.66 4 1 C3.67 2.32 3.34 3.64 3 5 C4.65 4.67 6.3 4.34 8 4 C8 4.99 8 5.98 8 7 C6.35 7.33 4.7 7.66 3 8 C3 8.66 3 9.32 3 10 C0.69 9.67 -1.62 9.34 -4 9 C-4.33 10.65 -4.66 12.3 -5 14 C-4.34 14.33 -3.68 14.66 -3 15 C-4.65 15 -6.3 15 -8 15 C-7.04416032 13.06126858 -6.08523808 11.1240567 -5.125 9.1875 C-4.32449219 7.56908203 -4.32449219 7.56908203 -3.5078125 5.91796875 C-2 3 -2 3 0 0 Z " fill="#27A0E6" transform="translate(283,166)"/>
<path d="M0 0 C0.66 0.66 1.32 1.32 2 2 C0.625 4.5 0.625 4.5 -1 7 C-1.66 7 -2.32 7 -3 7 C-3.0825 7.886875 -3.165 8.77375 -3.25 9.6875 C-4.0934086 13.41255464 -5.45552764 15.20928838 -8 18 C-8.33 16.02 -8.66 14.04 -9 12 C-8.01 12 -7.02 12 -6 12 C-6.33 10.68 -6.66 9.36 -7 8 C-6.34 8 -5.68 8 -5 8 C-5.57344937 5.13275314 -5.8614515 4.1385485 -8 2 C-6.71254964 1.61077082 -5.41980403 1.23901964 -4.125 0.875 C-3.04605469 0.56175781 -3.04605469 0.56175781 -1.9453125 0.2421875 C-1.30335938 0.16226563 -0.66140625 0.08234375 0 0 Z " fill="#1E9DE8" transform="translate(392,169)"/>
<path d="M0 0 C1 3 1 3 0.22265625 5.04296875 C-0.16019531 5.75066406 -0.54304688 6.45835938 -0.9375 7.1875 C-1.31777344 7.90292969 -1.69804687 8.61835937 -2.08984375 9.35546875 C-2.39019531 9.89816406 -2.69054687 10.44085938 -3 11 C-1.35 10.67 0.3 10.34 2 10 C2.33 9.01 2.66 8.02 3 7 C3 7.66 3 8.32 3 9 C3.66 9.33 4.32 9.66 5 10 C1.375 14.875 1.375 14.875 -2 16 C-2 15.01 -2 14.02 -2 13 C-2.66 13 -3.32 13 -4 13 C-3.67 13.99 -3.34 14.98 -3 16 C-3.639375 16.28875 -4.27875 16.5775 -4.9375 16.875 C-7.15206079 17.82823451 -7.15206079 17.82823451 -8 20 C-8.66 19.67 -9.32 19.34 -10 19 C-6.7 12.73 -3.4 6.46 0 0 Z " fill="#26A1E9" transform="translate(325,87)"/>
<path d="M0 0 C0.66 0.66 1.32 1.32 2 2 C-0.97 7.61 -3.94 13.22 -7 19 C-7.33 18.34 -7.66 17.68 -8 17 C-8.66 16.67 -9.32 16.34 -10 16 C-9.01 16 -8.02 16 -7 16 C-8.21044132 11.39257135 -8.21044132 11.39257135 -10 7 C-9.34 7 -8.68 7 -8 7 C-7.34 5.68 -6.68 4.36 -6 3 C-5.34 3.33 -4.68 3.66 -4 4 C-4.33 5.32 -4.66 6.64 -5 8 C-4.34 8 -3.68 8 -3 8 C-2.690625 7.05125 -2.38125 6.1025 -2.0625 5.125 C-1 2 -1 2 0 0 Z " fill="#2B9EE4" transform="translate(206,230)"/>
<path d="M0 0 C0.93423645 3.01031744 1.04449911 3.86650268 0 7 C0.66 7 1.32 7 2 7 C3 10 3 10 1.5625 13.1875 C0.7890625 14.5796875 0.7890625 14.5796875 0 16 C-0.33 15.34 -0.66 14.68 -1 14 C-3.52733235 13.34444881 -3.52733235 13.34444881 -6 13 C-4.58707905 8.1725201 -2.57025846 4.2837641 0 0 Z " fill="#2397DF" transform="translate(16,374)"/>
<path d="M0 0 C0.33 0.99 0.66 1.98 1 3 C3.41619823 3.25030977 3.41619823 3.25030977 6 3 C6.66 2.01 7.32 1.02 8 0 C8.66 0 9.32 0 10 0 C10.625 3.375 10.625 3.375 11 7 C10.34 7.66 9.68 8.32 9 9 C8.01 8.01 7.02 7.02 6 6 C6 7.65 6 9.3 6 11 C5.67 10.34 5.34 9.68 5 9 C4.01 8.690625 3.02 8.38125 2 8.0625 C1.01 7.711875 0.02 7.36125 -1 7 C-2 4 -2 4 -1.0625 1.8125 C-0.5365625 0.9153125 -0.5365625 0.9153125 0 0 Z " fill="#0F95E2" transform="translate(66,282)"/>
<path d="M0 0 C2 3 2 3 3 5 C3.66 5.33 4.32 5.66 5 6 C5 6.99 5 7.98 5 9 C5.66 9.66 6.32 10.32 7 11 C6.34 11 5.68 11 5 11 C5.226875 11.598125 5.45375 12.19625 5.6875 12.8125 C5.8421875 13.8953125 5.8421875 13.8953125 6 15 C4.5625 16.75 4.5625 16.75 3 18 C3 17.01 3 16.02 3 15 C2.67 14.67 2.34 14.34 2 14 C1.95919217 12.00041636 1.95745644 9.99954746 2 8 C1.01 8 0.02 8 -1 8 C-1.33 8.66 -1.66 9.32 -2 10 C-2.6875 8.375 -2.6875 8.375 -3 6 C-1.5625 2.75 -1.5625 2.75 0 0 Z " fill="#1D9CE6" transform="translate(128,167)"/>
<path d="M0 0 C1 3 1 3 -0.43359375 6.13671875 C-1.09135973 7.3260128 -1.75977815 8.50946371 -2.4375 9.6875 C-2.77587891 10.29400391 -3.11425781 10.90050781 -3.46289062 11.52539062 C-4.29957915 13.0220025 -5.14862831 14.51169189 -6 16 C-6.66 16 -7.32 16 -8 16 C-8.144375 14.88625 -8.28875 13.7725 -8.4375 12.625 C-8.78372035 9.17857953 -8.78372035 9.17857953 -10 7 C-9.360625 6.87625 -8.72125 6.7525 -8.0625 6.625 C-7.381875 6.41875 -6.70125 6.2125 -6 6 C-5.67 5.34 -5.34 4.68 -5 4 C-4.01 4.33 -3.02 4.66 -2 5 C-1.34 3.35 -0.68 1.7 0 0 Z " fill="#26A0E9" transform="translate(412,133)"/>
<path d="M0 0 C1.31538327 4.15771494 0.34433068 6.8879297 -1 11 C-0.175 11.4125 0.65 11.825 1.5 12.25 C2.325 12.8275 3.15 13.405 4 14 C4 15.32 4 16.64 4 18 C-0.75 17.125 -0.75 17.125 -3 16 C-4.28893519 13.3100483 -4.94114832 11.90513313 -5 9 C-3.69652395 5.74903799 -1.95751773 2.89686349 0 0 Z " fill="#109DE7" transform="translate(297,140)"/>
<path d="M0 0 C0.33 0 0.66 0 1 0 C1.125 5.75 1.125 5.75 0 8 C0.99 8.33 1.98 8.66 3 9 C3 9.99 3 10.98 3 12 C-0.47823115 13.15941038 -2.45895578 12.70820884 -6 12 C-4.43358249 7.69235185 -2.31663844 3.93828536 0 0 Z " fill="#1994E0" transform="translate(63,288)"/>
<path d="M0 0 C0.99 0.33 1.98 0.66 3 1 C0.69 4.96 -1.62 8.92 -4 13 C-4.99 12.01 -5.98 11.02 -7 10 C-6.01 10 -5.02 10 -4 10 C-4 9.34 -4 8.68 -4 8 C-4.99 8.33 -5.98 8.66 -7 9 C-7.33 8.01 -7.66 7.02 -8 6 C-3.375 2 -3.375 2 0 2 C0 1.34 0 0.68 0 0 Z " fill="#FDC131" transform="translate(694,160)"/>
<path d="M0 0 C1.62597656 2.15332031 1.62597656 2.15332031 1.50097656 4.77832031 C0.62597656 7.15332031 0.62597656 7.15332031 -1.37402344 9.15332031 C-1.04402344 6.84332031 -0.71402344 4.53332031 -0.37402344 2.15332031 C-1.36402344 2.48332031 -2.35402344 2.81332031 -3.37402344 3.15332031 C-3.70402344 2.49332031 -4.03402344 1.83332031 -4.37402344 1.15332031 C-15.75902344 0.65832031 -15.75902344 0.65832031 -27.37402344 0.15332031 C-27.37402344 -0.17667969 -27.37402344 -0.50667969 -27.37402344 -0.84667969 C-23.2923088 -1.13070272 -19.20918193 -1.36798256 -15.12402344 -1.59667969 C-13.96515625 -1.67789063 -12.80628906 -1.75910156 -11.61230469 -1.84277344 C-10.49726563 -1.90078125 -9.38222656 -1.95878906 -8.23339844 -2.01855469 C-7.20698242 -2.08139648 -6.18056641 -2.14423828 -5.12304688 -2.20898438 C-2.37402344 -1.84667969 -2.37402344 -1.84667969 0 0 Z " fill="#1AA2E8" transform="translate(285.3740234375,79.8466796875)"/>
<path d="M0 0 C0.99 0.33 1.98 0.66 3 1 C3.83984375 2.765625 3.83984375 2.765625 4 5 C3.00390625 7.359375 3.00390625 7.359375 1.5625 9.75 C1.08941406 10.54921875 0.61632812 11.3484375 0.12890625 12.171875 C-0.24363281 12.77515625 -0.61617188 13.3784375 -1 14 C-1.66 14 -2.32 14 -3 14 C-2.88570603 12.22844346 -2.75816963 10.45773771 -2.625 8.6875 C-2.55539062 7.70136719 -2.48578125 6.71523438 -2.4140625 5.69921875 C-2 3 -2 3 0 0 Z " fill="#0E93E0" transform="translate(324,288)"/>
<path d="M0 0 C1.65 0 3.3 0 5 0 C3.02 3.96 1.04 7.92 -1 12 C-1.33 12 -1.66 12 -2 12 C-2.05395478 10.37536158 -2.09277195 8.75021459 -2.125 7.125 C-2.14820313 6.22007812 -2.17140625 5.31515625 -2.1953125 4.3828125 C-2 2 -2 2 0 0 Z " fill="#2298E2" transform="translate(176,280)"/>
<path d="M0 0 C1.32 0.33 2.64 0.66 4 1 C2.02 4.96 0.04 8.92 -2 13 C-4 9 -4 9 -3.625 6.75 C-3.41875 6.1725 -3.2125 5.595 -3 5 C-2.34 5 -1.68 5 -1 5 C-0.67 3.35 -0.34 1.7 0 0 Z " fill="#2CA2E7" transform="translate(397,156)"/>
<path d="M0 0 C0.33 0 0.66 0 1 0 C1 2.31 1 4.62 1 7 C2.32 7.33 3.64 7.66 5 8 C2.01353231 9.99097846 -0.59687262 10.94124926 -4 12 C-5 9 -5 9 -4.00390625 6.73828125 C-3.52824219 5.93777344 -3.05257812 5.13726562 -2.5625 4.3125 C-2.08941406 3.50425781 -1.61632812 2.69601563 -1.12890625 1.86328125 C-0.75636719 1.24839844 -0.38382813 0.63351563 0 0 Z " fill="#24A0E8" transform="translate(146,134)"/>
<path d="M0 0 C1.66666667 6.66666667 1.66666667 6.66666667 0 10 C-0.99 10.33 -1.98 10.66 -3 11 C-3.33 11.99 -3.66 12.98 -4 14 C-4.66 14 -5.32 14 -6 14 C-6 14.66 -6 15.32 -6 16 C-6.66 15.67 -7.32 15.34 -8 15 C-5.36 10.05 -2.72 5.1 0 0 Z " fill="#2A99E3" transform="translate(222,277)"/>
<path d="M0 0 C1.25 1.5625 1.25 1.5625 2 4 C0.93237266 6.57001015 -0.46544943 8.6530403 -2 11 C-2.66 11 -3.32 11 -4 11 C-3.67 9.68 -3.34 8.36 -3 7 C-3.66 6.67 -4.32 6.34 -5 6 C-5.33 5.67 -5.66 5.34 -6 5 C-3.375 1.125 -3.375 1.125 0 0 Z " fill="#22A2EA" transform="translate(418,119)"/>
<path d="M0 0 C0.66 0.99 1.32 1.98 2 3 C2.99387334 4.33790641 3.9926892 5.67218122 5 7 C1.66666667 8.66666667 -1.66666667 10.33333333 -5 12 C-3.68938409 7.76570244 -2.05643741 3.92592596 0 0 Z " fill="#25A0E8" transform="translate(155,116)"/>
<path d="M0 0 C2.33333333 0 4.66666667 0 7 0 C6.46930939 3.82097239 5.50298434 6.06171403 3 9 C3 7.02 3 5.04 3 3 C2.34 3 1.68 3 1 3 C0.34 4.32 -0.32 5.64 -1 7 C-1.66 6.67 -2.32 6.34 -3 6 C-2.01 4.02 -1.02 2.04 0 0 Z " fill="#1F9FE9" transform="translate(272,97)"/>
<path d="M0 0 C0.66 0.33 1.32 0.66 2 1 C0.68 3.31 -0.64 5.62 -2 8 C-2.99 8 -3.98 8 -5 8 C-5 7.34 -5 6.68 -5 6 C-5.99 6 -6.98 6 -8 6 C-7.67 4.68 -7.34 3.36 -7 2 C-5.68 2 -4.36 2 -3 2 C-2.01 1.34 -1.02 0.68 0 0 Z " fill="#1C96E1" transform="translate(160,315)"/>
<path d="M0 0 C0.99 0.66 1.98 1.32 3 2 C3.66 2 4.32 2 5 2 C5.33 3.65 5.66 5.3 6 7 C3.08517222 7.80967438 1.53886783 8.21845993 -1.3125 7.0625 C-1.869375 6.711875 -2.42625 6.36125 -3 6 C-2.01 4.02 -1.02 2.04 0 0 Z " fill="#239BE4" transform="translate(233,257)"/>
<path d="M0 0 C0.66 0.33 1.32 0.66 2 1 C2.33 1.99 2.66 2.98 3 4 C5.00016466 5.20882096 5.00016466 5.20882096 7 6 C6.34 7.65 5.68 9.3 5 11 C4.01 9.68 3.02 8.36 2 7 C2 7.99 2 8.98 2 10 C0 12 0 12 -2 13 C-1.855625 12.154375 -1.71125 11.30875 -1.5625 10.4375 C-0.9941203 6.96406851 -0.48797607 3.48554338 0 0 Z " fill="#0B96E3" transform="translate(292,151)"/>
<path d="M0 0 C1.11498117 4.45992466 0.75592147 5.87358455 -1 10 C-2.4375 11.5625 -2.4375 11.5625 -4 13 C-5.03357147 14.64605826 -6.04060332 16.30963442 -7 18 C-7.66 17.67 -8.32 17.34 -9 17 C-6.03 11.39 -3.06 5.78 0 0 Z " fill="#FCC446" transform="translate(630,107)"/>
<path d="M0 0 C0.99 0 1.98 0 3 0 C1.50829734 4.9723422 -0.60457417 9.41845739 -3 14 C-3.97608217 11.07175348 -4.08226668 9.04386724 -4 6 C-3.01 5.67 -2.02 5.34 -1 5 C-1.33 4.01 -1.66 3.02 -2 2 C-1.34 1.34 -0.68 0.68 0 0 Z " fill="#38A1E4" transform="translate(149,333)"/>
<path d="M0 0 C0.66 0 1.32 0 2 0 C2.66 1.65 3.32 3.3 4 5 C1.60490662 7.89932357 -0.31245243 8.50168276 -4 9 C-2.68 6.03 -1.36 3.06 0 0 Z " fill="#2B9DE5" transform="translate(108,204)"/>
<path d="M0 0 C0.66 0 1.32 0 2 0 C0.65150163 4.35970831 -1.04907846 8.31341438 -3.125 12.375 C-3.66382813 13.43460938 -4.20265625 14.49421875 -4.7578125 15.5859375 C-5.16773438 16.38257813 -5.57765625 17.17921875 -6 18 C-7.32554118 14.02337646 -6.34765994 11.90112089 -5 8 C-4.34 7.34 -3.68 6.68 -3 6 C-1.96838392 4.01612292 -0.96476382 2.01723344 0 0 Z " fill="#49ADEC" transform="translate(244,159)"/>
<path d="M0 0 C1.32 0.33 2.64 0.66 4 1 C3.34 1 2.68 1 2 1 C2.33 3.31 2.66 5.62 3 8 C1.35 8.33 -0.3 8.66 -2 9 C-2.6875 6.75 -2.6875 6.75 -3 4 C-1.5625 1.6875 -1.5625 1.6875 0 0 Z " fill="#1593E0" transform="translate(38,334)"/>
<path d="M0 0 C0.66 0.33 1.32 0.66 2 1 C1.67 2.32 1.34 3.64 1 5 C1.66 5 2.32 5 3 5 C3.33 4.34 3.66 3.68 4 3 C6 4 6 4 6.8125 5.8125 C7 8 7 8 5.5625 10.25 C5.046875 10.8275 4.53125 11.405 4 12 C3.67 10.02 3.34 8.04 3 6 C2.01 6 1.02 6 0 6 C0 5.01 0 4.02 0 3 C-0.99 2.67 -1.98 2.34 -3 2 C-2.01 2 -1.02 2 0 2 C0 1.34 0 0.68 0 0 Z " fill="#1E9BE3" transform="translate(164,292)"/>
<path d="M0 0 C1.5 1.375 1.5 1.375 3 3 C3 3.66 3 4.32 3 5 C3.66 5 4.32 5 5 5 C4.67 5.99 4.34 6.98 4 8 C1.525 7.01 1.525 7.01 -1 6 C-1.28875 6.804375 -1.5775 7.60875 -1.875 8.4375 C-3 11 -3 11 -5 12 C-3.41037341 7.96479403 -1.71767682 3.98188718 0 0 Z " fill="#2C9DE4" transform="translate(83,250)"/>
<path d="M0 0 C1.21386936 3.64160808 0.6674695 4.33165469 -0.9375 7.6875 C-1.31777344 8.49574219 -1.69804687 9.30398437 -2.08984375 10.13671875 C-2.39019531 10.75160156 -2.69054687 11.36648437 -3 12 C-3.66 12 -4.32 12 -5 12 C-5 12.99 -5 13.98 -5 15 C-5.66 15 -6.32 15 -7 15 C-5.45454854 9.52067211 -2.84456788 4.88570819 0 0 Z " fill="#58CAF7" transform="translate(472,97)"/>
<path d="M0 0 C0.33 0 0.66 0 1 0 C1.17835515 4.54805635 0.99785435 7.8794254 -1 12 C-1.99 11.01 -2.98 10.02 -4 9 C-2.94124926 5.59687262 -1.99097846 2.98646769 0 0 Z " fill="#2FA4EA" transform="translate(291,151)"/>
<path d="M0 0 C0.68359375 1.640625 0.68359375 1.640625 1 4 C-0.21484375 6.796875 -0.21484375 6.796875 -1.9375 9.75 C-2.50339844 10.73484375 -3.06929687 11.7196875 -3.65234375 12.734375 C-4.09707031 13.48203125 -4.54179687 14.2296875 -5 15 C-5.66 15 -6.32 15 -7 15 C-5.63408831 11.45756548 -4.09068516 8.07372071 -2.375 4.6875 C-1.70597656 3.36298828 -1.70597656 3.36298828 -1.0234375 2.01171875 C-0.68570313 1.34785156 -0.34796875 0.68398438 0 0 Z " fill="#309AE1" transform="translate(166,379)"/>
<path d="M0 0 C-0.75 4.75 -0.75 4.75 -3 7 C-5.625 6.625 -5.625 6.625 -8 6 C-6.72879117 2.18637351 -4.19078006 0 0 0 Z " fill="#098CDB" transform="translate(183,360)"/>
<path d="M0 0 C1.10191901 4.40767604 0.58706842 5.8922935 -1 10 C-1.66 10 -2.32 10 -3 10 C-3 10.99 -3 11.98 -3 13 C-4.32 13.33 -5.64 13.66 -7 14 C-4.69 9.38 -2.38 4.76 0 0 Z " fill="#3BA0E5" transform="translate(34,340)"/>
<path d="M0 0 C1.65 0 3.3 0 5 0 C3.55049545 3.7910119 1.84827434 7.3874638 0 11 C-1.37432457 7.18243176 -0.67975039 3.92744671 0 0 Z " fill="#2F9FE4" transform="translate(337,265)"/>
<path d="M0 0 C0.33 0.99 0.66 1.98 1 3 C1.99 3.33 2.98 3.66 4 4 C1.47211993 6.79872437 -0.20411134 8.45773019 -4 9 C-2.94124926 5.59687262 -1.99097846 2.98646769 0 0 Z " fill="#38A2E4" transform="translate(179,355)"/>
<path d="M0 0 C0.99 0.33 1.98 0.66 3 1 C1.35 4.3 -0.3 7.6 -2 11 C-2.66 11 -3.32 11 -4 11 C-2.25 3.375 -2.25 3.375 0 0 Z " fill="#4EC9F8" transform="translate(545,168)"/>
<path d="M0 0 C0.66 0 1.32 0 2 0 C0.58707905 4.8274799 -1.42974154 8.7162359 -4 13 C-5.0169313 10.34501768 -5.13022151 9.30844625 -4.00390625 6.640625 C-3.52824219 5.85171875 -3.05257812 5.0628125 -2.5625 4.25 C-2.08941406 3.45078125 -1.61632812 2.6515625 -1.12890625 1.828125 C-0.75636719 1.22484375 -0.38382813 0.6215625 0 0 Z " fill="#FEC84B" transform="translate(662,220)"/>
<path d="M0 0 C0.66 0 1.32 0 2 0 C1.67 1.65 1.34 3.3 1 5 C0.34 5 -0.32 5 -1 5 C-1.33 6.65 -1.66 8.3 -2 10 C-3.65 10 -5.3 10 -7 10 C-6.319375 9.38125 -6.319375 9.38125 -5.625 8.75 C-3.92360636 6.91772993 -3.05553338 5.25180453 -2 3 C-1.34 2.01 -0.68 1.02 0 0 Z " fill="#0A8CDA" transform="translate(68,316)"/>
<path d="M0 0 C0.99 0.33 1.98 0.66 3 1 C2.67 2.65 2.34 4.3 2 6 C0.68 6.33 -0.64 6.66 -2 7 C-2 7.66 -2 8.32 -2 9 C-2.66 9 -3.32 9 -4 9 C-2.80100302 5.9168649 -1.52299523 2.93720508 0 0 Z " fill="#249BE4" transform="translate(254,219)"/>
<path d="M0 0 C0.66 0 1.32 0 2 0 C2 0.99 2 1.98 2 3 C2.66 3.33 3.32 3.66 4 4 C4 4.66 4 5.32 4 6 C1.69 6.33 -0.62 6.66 -3 7 C-1.125 1.125 -1.125 1.125 0 0 Z " fill="#2297E2" transform="translate(26,356)"/>
<path d="M0 0 C1.65 0.33 3.3 0.66 5 1 C4.67 2.65 4.34 4.3 4 6 C1.69 5.34 -0.62 4.68 -3 4 C-2.67 3.34 -2.34 2.68 -2 2 C-1.34 2 -0.68 2 0 2 C0 1.34 0 0.68 0 0 Z " fill="#0E8EDC" transform="translate(307,317)"/>
<path d="M0 0 C1.09658936 3.28976808 0.79953138 4.71303767 0 8 C1.32 7.67 2.64 7.34 4 7 C4.33 8.32 4.66 9.64 5 11 C3.02 10.34 1.04 9.68 -1 9 C-1 8.34 -1 7.68 -1 7 C-1.66 6.67 -2.32 6.34 -3 6 C-2.01 4.02 -1.02 2.04 0 0 Z " fill="#2F9DE4" transform="translate(206,306)"/>
<path d="M0 0 C1.32 0 2.64 0 4 0 C2.125 4.75 2.125 4.75 1 7 C0.01 6.67 -0.98 6.34 -2 6 C-1.49396008 3.83125748 -1.00016187 2.00032373 0 0 Z " fill="#FDC133" transform="translate(646,246)"/>
<path d="M0 0 C2.31 0 4.62 0 7 0 C6.34 1.98 5.68 3.96 5 6 C3.35 5.67 1.7 5.34 0 5 C0 3.35 0 1.7 0 0 Z " fill="#0C96E4" transform="translate(305,126)"/>
<path d="M0 0 C0.66 0.33 1.32 0.66 2 1 C2 1.99 2 2.98 2 4 C1.34 4 0.68 4 0 4 C0.33 5.32 0.66 6.64 1 8 C0.01 8.495 0.01 8.495 -1 9 C-1.99 8.67 -2.98 8.34 -4 8 C-2.87548273 5.0280615 -1.77706209 2.66559313 0 0 Z " fill="#1F9DE8" transform="translate(174,83)"/>
<path d="M0 0 C4.75 0.75 4.75 0.75 7 3 C5.68 4.65 4.36 6.3 3 8 C0 2.25 0 2.25 0 0 Z " fill="#2199E2" transform="translate(304,321)"/>
<path d="M0 0 C1.08711385 4.3484554 0.94219172 6.11561657 -1 10 C-2.32 9.67 -3.64 9.34 -5 9 C-3.35 6.03 -1.7 3.06 0 0 Z " fill="#FDC33D" transform="translate(562,233)"/>
<path d="M0 0 C1.5 1.3125 1.5 1.3125 3 3 C3 3.99 3 4.98 3 6 C3.66 6 4.32 6 5 6 C5 6.66 5 7.32 5 8 C3.68 8 2.36 8 1 8 C0.67 8.99 0.34 9.98 0 11 C-1.33470263 8.33059475 -0.57333449 6.86667247 0 4 C-0.33 3.34 -0.66 2.68 -1 2 C-0.67 1.34 -0.34 0.68 0 0 Z " fill="#23A0E5" transform="translate(95,228)"/>
<path d="M0 0 C2 1 2 1 2.8125 2.8125 C3 5 3 5 1.5625 7.25 C1.046875 7.8275 0.53125 8.405 0 9 C-1.5625 7.1875 -1.5625 7.1875 -3 5 C-2.67 4.01 -2.34 3.02 -2 2 C-1.67 2.33 -1.34 2.66 -1 3 C-0.67 2.01 -0.34 1.02 0 0 Z " fill="#22A0E9" transform="translate(401,147)"/>
<path d="M0 0 C1.32 0.66 2.64 1.32 4 2 C4 3.65 4 5.3 4 7 C2.68 7 1.36 7 0 7 C0 6.34 0 5.68 0 5 C-0.66 4.67 -1.32 4.34 -2 4 C-1.34 2.68 -0.68 1.36 0 0 Z " fill="#FDC133" transform="translate(510,328)"/>
<path d="M0 0 C0.66 0.99 1.32 1.98 2 3 C1.21718695 4.33855056 0.42348123 5.67073644 -0.375 7 C-0.81585937 7.7425 -1.25671875 8.485 -1.7109375 9.25 C-2.13632812 9.8275 -2.56171875 10.405 -3 11 C-3.66 11 -4.32 11 -5 11 C-3.55049545 7.2089881 -1.84827434 3.6125362 0 0 Z " fill="#FDC445" transform="translate(526,298)"/>
<path d="M0 0 C0.99 0.33 1.98 0.66 3 1 C2.6875 2.9375 2.6875 2.9375 2 5 C1.01 5.33 0.02 5.66 -1 6 C-1 6.99 -1 7.98 -1 9 C-1.99 8.67 -2.98 8.34 -4 8 C-2.68 5.36 -1.36 2.72 0 0 Z " fill="#FDC545" transform="translate(536,280)"/>
<path d="M0 0 C0.433125 0.474375 0.86625 0.94875 1.3125 1.4375 C3.02309613 3.23686957 3.02309613 3.23686957 6 4 C6 5.32 6 6.64 6 8 C4.35 7.67 2.7 7.34 1 7 C1 6.34 1 5.68 1 5 C0.34 5 -0.32 5 -1 5 C-0.67 3.35 -0.34 1.7 0 0 Z " fill="#0D99E7" transform="translate(424,96)"/>
<path d="M0 0 C2.64 0 5.28 0 8 0 C5.86535088 2.45484649 4.29279709 3.68134222 1 4 C0.34 3.34 -0.32 2.68 -1 2 C-0.67 1.34 -0.34 0.68 0 0 Z " fill="#2698DF" transform="translate(254,408)"/>
<path d="M0 0 C0.33 0 0.66 0 1 0 C1 2.31 1 4.62 1 7 C1.66 7 2.32 7 3 7 C3 7.66 3 8.32 3 9 C2.34 9 1.68 9 1 9 C0.67 9.66 0.34 10.32 0 11 C-1.69230769 3.38461538 -1.69230769 3.38461538 0 0 Z " fill="#279BE2" transform="translate(56,300)"/>
<path d="M0 0 C1.1484375 1.703125 1.1484375 1.703125 2 4 C1.1015625 6.359375 1.1015625 6.359375 -0.375 8.75 C-0.85710937 9.54921875 -1.33921875 10.3484375 -1.8359375 11.171875 C-2.22007812 11.77515625 -2.60421875 12.3784375 -3 13 C-4.1171875 9.28125 -4.1171875 9.28125 -3.0625 6.75 C-2.5365625 5.88375 -2.5365625 5.88375 -2 5 C-1.34 5 -0.68 5 0 5 C0 3.35 0 1.7 0 0 Z " fill="#3FA9EA" transform="translate(360,226)"/>
<path d="M0 0 C1.4606285 2.64738916 2 3.89448334 2 7 C0.35 7.33 -1.3 7.66 -3 8 C-2.37240135 5.07120629 -1.41377341 2.63904371 0 0 Z " fill="#28A2E8" transform="translate(124,175)"/>
<path d="M0 0 C0.75 1.5625 0.75 1.5625 1 4 C-0.13084437 6.50286409 -1.52139516 8.67007722 -3 11 C-3.66 11 -4.32 11 -5 11 C-3.77472971 6.94718288 -2.30119506 3.55639236 0 0 Z " fill="#36A4EB" transform="translate(297,140)"/>
<path d="M0 0 C0.92538169 3.70152678 1.08174162 4.63458162 0 8 C-0.66 7.67 -1.32 7.34 -2 7 C-2.33 7.99 -2.66 8.98 -3 10 C-3.66 9.67 -4.32 9.34 -5 9 C-3.35 6.03 -1.7 3.06 0 0 Z " fill="#FDC546" transform="translate(516,317)"/>
<path d="M0 0 C0.66 0.33 1.32 0.66 2 1 C0.68 3.31 -0.64 5.62 -2 8 C-2.99 8 -3.98 8 -5 8 C-4.67 6.02 -4.34 4.04 -4 2 C-2.68 2 -1.36 2 0 2 C0 1.34 0 0.68 0 0 Z " fill="#2799E2" transform="translate(165,306)"/>
<path d="M0 0 C0.66 0.66 1.32 1.32 2 2 C0.35 4.97 -1.3 7.94 -3 11 C-3.66 11 -4.32 11 -5 11 C-3.77472971 6.94718288 -2.30119506 3.55639236 0 0 Z " fill="#3B9DE5" transform="translate(326,291)"/>
<path d="M0 0 C0.66 0.33 1.32 0.66 2 1 C0.68 3.31 -0.64 5.62 -2 8 C-3.32 6.68 -4.64 5.36 -6 4 C-4.02 3.34 -2.04 2.68 0 2 C0 1.34 0 0.68 0 0 Z " fill="#40A8E8" transform="translate(345,257)"/>
<path d="M0 0 C-1.15585285 3.91211733 -2.35534962 6.8745041 -5 10 C-5.3669579 3.51707705 -5.3669579 3.51707705 -3.625 1.0625 C-2 0 -2 0 0 0 Z " fill="#37A6E9" transform="translate(226,197)"/>
<path d="M0 0 C1.125 3.75 1.125 3.75 0 6 C-0.66 6 -1.32 6 -2 6 C-2 7.32 -2 8.64 -2 10 C-2.99 10.33 -3.98 10.66 -5 11 C-3.77472971 6.94718288 -2.30119506 3.55639236 0 0 Z " fill="#FECB57" transform="translate(596,170)"/>
<path d="M0 0 C0.99 0.99 1.98 1.98 3 3 C2.34 4.65 1.68 6.3 1 8 C-0.32 7.01 -1.64 6.02 -3 5 C-2.01 3.35 -1.02 1.7 0 0 Z " fill="#2BA3E8" transform="translate(304,127)"/>
<path d="M0 0 C0.33 1.32 0.66 2.64 1 4 C0.34 4 -0.32 4 -1 4 C-1 4.66 -1 5.32 -1 6 C-0.34 6.33 0.32 6.66 1 7 C0.01 8.485 0.01 8.485 -1 10 C-1.66 10 -2.32 10 -3 10 C-4 7 -4 7 -3.22265625 5.17578125 C-2.1484375 3.45052083 -1.07421875 1.72526042 0 0 Z " fill="#25A1E9" transform="translate(168,93)"/>
<path d="M0 0 C1 3 1 3 0.22265625 4.82421875 C-0.8515625 6.54947917 -1.92578125 8.27473958 -3 10 C-3.66 10 -4.32 10 -5 10 C-3.66511872 6.40608886 -2.03977277 3.24509304 0 0 Z " fill="#3AA3E7" transform="translate(101,218)"/>
<path d="M0 0 C2 1 4 2 6 3 C4.68 4.32 3.36 5.64 2 7 C2 6.34 2 5.68 2 5 C0.68 4.67 -0.64 4.34 -2 4 C-1.34 2.68 -0.68 1.36 0 0 Z " fill="#249FE6" transform="translate(264,201)"/>
<path d="M0 0 C1.07349791 4.29399165 0.79682816 5.19495213 -1 9 C-1.66 9 -2.32 9 -3 9 C-3 9.66 -3 10.32 -3 11 C-3.66 10.67 -4.32 10.34 -5 10 C-3.35 6.7 -1.7 3.4 0 0 Z " fill="#2097E5" transform="translate(270,190)"/>
<path d="M0 0 C2.0625 1.6875 2.0625 1.6875 4 4 C3.83849795 7.39154295 3.41703243 8.58296757 1 11 C1.33 8.69 1.66 6.38 2 4 C1.34 4 0.68 4 0 4 C0 2.68 0 1.36 0 0 Z " fill="#329DE8" transform="translate(283,78)"/>
<path d="M0 0 C0.66 0.33 1.32 0.66 2 1 C0.68 3.31 -0.64 5.62 -2 8 C-2.66 6.68 -3.32 5.36 -4 4 C-3.34 4 -2.68 4 -2 4 C-2 3.01 -2 2.02 -2 1 C-1.34 0.67 -0.68 0.34 0 0 Z " fill="#2294DF" transform="translate(116,397)"/>
<path d="M0 0 C0.66 0 1.32 0 2 0 C0.25 5.75 0.25 5.75 -2 8 C-2.66 7.01 -3.32 6.02 -4 5 C-2.71937515 3.2925002 -1.38232443 1.62626404 0 0 Z " fill="#2796E0" transform="translate(124,381)"/>
<path d="M0 0 C0.66666667 2.66666667 1.33333333 5.33333333 2 8 C0.68 8.33 -0.64 8.66 -2 9 C-2.6875 7.3125 -2.6875 7.3125 -3 5 C-1.5625 2.25 -1.5625 2.25 0 0 Z " fill="#2B9AE5" transform="translate(210,299)"/>
<path d="M0 0 C1.32 0 2.64 0 4 0 C3.25 6.75 3.25 6.75 1 9 C0.67 6.03 0.34 3.06 0 0 Z " fill="#55CAF8" transform="translate(472,298)"/>
<path d="M0 0 C-0.60183749 2.02045442 -1.27306096 4.02111039 -2 6 C-2.99 6.495 -2.99 6.495 -4 7 C-4.66 5.35 -5.32 3.7 -6 2 C-2.25 0 -2.25 0 0 0 Z " fill="#33A1E8" transform="translate(336,276)"/>
<path d="M0 0 C0.66 1.32 1.32 2.64 2 4 C0.68 5.65 -0.64 7.3 -2 9 C-3.125 4.25 -3.125 4.25 -2 2 C-1.34 2 -0.68 2 0 2 C0 1.34 0 0.68 0 0 Z " fill="#209AE3" transform="translate(185,267)"/>
<path d="M0 0 C0.66 0.33 1.32 0.66 2 1 C0.68 3.64 -0.64 6.28 -2 9 C-2.66 8.67 -3.32 8.34 -4 8 C-2.25 2.25 -2.25 2.25 0 0 Z " fill="#4AAEEC" transform="translate(424,111)"/>
<path d="M0 0 C0.598125 0.33 1.19625 0.66 1.8125 1 C4.05386471 2.20787988 4.05386471 2.20787988 7 2 C6.34 3.32 5.68 4.64 5 6 C3.02 5.01 1.04 4.02 -1 3 C-0.67 2.01 -0.34 1.02 0 0 Z " fill="#1FA3EA" transform="translate(157,113)"/>
<path d="M0 0 C1.32 0.33 2.64 0.66 4 1 C3.01 2.98 2.02 4.96 1 7 C0.67 6.34 0.34 5.68 0 5 C-0.66 4.67 -1.32 4.34 -2 4 C-1.34 2.68 -0.68 1.36 0 0 Z " fill="#279AE4" transform="translate(195,326)"/>
<path d="M0 0 C2.475 0.495 2.475 0.495 5 1 C3.515 4.465 3.515 4.465 2 8 C1.67 8 1.34 8 1 8 C0.67 5.36 0.34 2.72 0 0 Z " fill="#2E9FE5" transform="translate(327,283)"/>
<path d="M0 0 C0.6875 1.6875 0.6875 1.6875 1 4 C-0.3125 6.75 -0.3125 6.75 -2 9 C-2.66 9 -3.32 9 -4 9 C-2.94124926 5.59687262 -1.99097846 2.98646769 0 0 Z " fill="#359FE6" transform="translate(91,236)"/>
<path d="M0 0 C0.99 0.99 1.98 1.98 3 3 C2.34 4.65 1.68 6.3 1 8 C-1 6 -1 6 -1.1875 3.4375 C-1 1 -1 1 0 0 Z " fill="#FDC237" transform="translate(679,184)"/>
<path d="M0 0 C0.33 0 0.66 0 1 0 C1.33 2.31 1.66 4.62 2 7 C1.01 7.33 0.02 7.66 -1 8 C-1.66 7.34 -2.32 6.68 -3 6 C-2.01 4.02 -1.02 2.04 0 0 Z " fill="#40ACEB" transform="translate(308,119)"/>
<path d="M0 0 C0.66 0.66 1.32 1.32 2 2 C0.68 3.65 -0.64 5.3 -2 7 C-2 5.68 -2 4.36 -2 3 C-2.99 3.33 -3.98 3.66 -5 4 C-4.67 3.01 -4.34 2.02 -4 1 C-2.02 1.495 -2.02 1.495 0 2 C0 1.34 0 0.68 0 0 Z " fill="#54CCF7" transform="translate(436,371)"/>
<path d="M0 0 C0.33 0.99 0.66 1.98 1 3 C1.99 3 2.98 3 4 3 C2.74458443 5.51083114 1.49936512 5.87125446 -1 7 C-2 4 -2 4 -1.0625 1.8125 C-0.5365625 0.9153125 -0.5365625 0.9153125 0 0 Z " fill="#249CE3" transform="translate(66,282)"/>
<path d="M0 0 C0.99 0.99 1.98 1.98 3 3 C2.01 4.98 1.02 6.96 0 9 C-0.66 8.67 -1.32 8.34 -2 8 C-1.34 5.36 -0.68 2.72 0 0 Z " fill="#39A6E9" transform="translate(216,209)"/>
<path d="M0 0 C-1.07401108 2.91517292 -1.77810176 4.77810176 -4 7 C-4.33 5.02 -4.66 3.04 -5 1 C-2 0 -2 0 0 0 Z " fill="#2FA1E8" transform="translate(388,180)"/>
<path d="M0 0 C0.66 0.66 1.32 1.32 2 2 C0.68 4.31 -0.64 6.62 -2 9 C-2.66 8.01 -3.32 7.02 -4 6 C-2.68 4.02 -1.36 2.04 0 0 Z " fill="#57CAF6" transform="translate(554,153)"/>
<path d="M0 0 C0.99 0.33 1.98 0.66 3 1 C2.34 2.65 1.68 4.3 1 6 C0.01 6 -0.98 6 -2 6 C-1.34 4.02 -0.68 2.04 0 0 Z " fill="#22A0E8" transform="translate(247,151)"/>
<path d="M0 0 C-1 3 -1 3 -3 5 C-3.99 5 -4.98 5 -6 5 C-6 3.68 -6 2.36 -6 1 C-3 0 -3 0 0 0 Z " fill="#229DE8" transform="translate(184,78)"/>
<path d="M0 0 C1.74627478 2.61941217 2.38722388 4.03824877 3 7 C2.01 7 1.02 7 0 7 C0 6.34 0 5.68 0 5 C-0.66 4.67 -1.32 4.34 -2 4 C-1.34 2.68 -0.68 1.36 0 0 Z " fill="#59CCF7" transform="translate(365,296)"/>
<path d="M0 0 C0.33 0 0.66 0 1 0 C1 1.98 1 3.96 1 6 C-0.32 6.33 -1.64 6.66 -3 7 C-1.125 2.25 -1.125 2.25 0 0 Z " fill="#2C9BE4" transform="translate(63,288)"/>
<path d="M0 0 C0.99 0.66 1.98 1.32 3 2 C3.66 2 4.32 2 5 2 C5 2.66 5 3.32 5 4 C2.69 4.33 0.38 4.66 -2 5 C-1.34 3.35 -0.68 1.7 0 0 Z " fill="#289DE4" transform="translate(249,228)"/>
</svg>
